<svg width="32" height="32" viewBox="0 0 32 32" fill="none" xmlns="http://www.w3.org/2000/svg">
<path d="M14.7073 6.29243C14.8003 6.3853 14.874 6.49559 14.9244 6.61699C14.9747 6.73839 15.0006 6.86851 15.0006 6.99993C15.0006 7.13135 14.9747 7.26147 14.9244 7.38287C14.874 7.50427 14.8003 7.61456 14.7073 7.70743L7.41356 14.9999L26.9998 14.9999C27.265 14.9999 27.5194 15.1053 27.7069 15.2928C27.8945 15.4804 27.9998 15.7347 27.9998 15.9999C27.9998 16.2651 27.8945 16.5195 27.7069 16.707C27.5194 16.8946 27.265 16.9999 26.9998 16.9999L7.41356 16.9999L14.7073 24.2924C14.895 24.4801 15.0004 24.7346 15.0004 24.9999C15.0004 25.2653 14.895 25.5198 14.7073 25.7074C14.5197 25.8951 14.2652 26.0005 13.9998 26.0005C13.7344 26.0005 13.4799 25.8951 13.2923 25.7074L4.29231 16.7074C4.19933 16.6146 4.12557 16.5043 4.07525 16.3829C4.02493 16.2615 3.99902 16.1313 3.99902 15.9999C3.99902 15.8685 4.02493 15.7384 4.07525 15.617C4.12557 15.4956 4.19933 15.3853 4.29231 15.2924L13.2923 6.29243C13.3852 6.19945 13.4955 6.12569 13.6169 6.07537C13.7383 6.02505 13.8684 5.99915 13.9998 5.99915C14.1312 5.99915 14.2614 6.02505 14.3827 6.07537C14.5041 6.12569 14.6144 6.19945 14.7073 6.29243Z" fill="black"/>
</svg>
