<svg width="40" height="40" viewBox="0 0 40 40" fill="none" xmlns="http://www.w3.org/2000/svg">
<path d="M18.8156 10.2933C18.9008 10.3861 18.9684 10.4964 19.0146 10.6178C19.0607 10.7392 19.0844 10.8693 19.0844 11.0007C19.0844 11.1321 19.0607 11.2622 19.0146 11.3836C18.9684 11.505 18.9008 11.6153 18.8156 11.7082L12.1299 19.0002L30.0834 19.0002C30.3265 19.0002 30.5596 19.1055 30.7315 19.2931C30.9034 19.4806 31 19.7349 31 20.0001C31 20.2653 30.9034 20.5196 30.7315 20.7072C30.5596 20.8947 30.3265 21 30.0834 21L12.1299 21L18.8156 28.2921C18.9876 28.4797 19.0842 28.7342 19.0842 28.9995C19.0842 29.2649 18.9876 29.5193 18.8156 29.707C18.6436 29.8946 18.4103 30 18.1671 30C17.9238 30 17.6906 29.8946 17.5186 29.707L9.26884 20.7076C9.18361 20.6147 9.116 20.5044 9.06987 20.383C9.02374 20.2616 9 20.1315 9 20.0001C9 19.8687 9.02374 19.7386 9.06987 19.6172C9.116 19.4958 9.18361 19.3855 9.26884 19.2927L17.5186 10.2933C17.6037 10.2003 17.7048 10.1265 17.8161 10.0762C17.9273 10.0259 18.0466 10 18.1671 10C18.2875 10 18.4068 10.0259 18.5181 10.0762C18.6294 10.1265 18.7305 10.2003 18.8156 10.2933Z" fill="black"/>
</svg>
