<svg width="55" height="44" viewBox="0 0 55 44" fill="none" xmlns="http://www.w3.org/2000/svg">
<rect width="55" height="44" fill="#F5F5F5"/>
<g id="&#208;&#186;&#208;&#176;&#209;&#128;&#209;&#130;&#208;&#190;&#209;&#135;&#208;&#186;&#208;&#176; &#208;&#186;&#208;&#190;&#209;&#132;&#208;&#181;&#208;&#185;&#208;&#189;&#208;&#184;_&#208;&#180;&#208;&#190;&#208;&#177;&#208;&#176;&#208;&#178;&#208;&#187;&#208;&#181;&#208;&#189;&#208;&#176; &#208;&#178; &#208;&#184;&#208;&#183;&#208;&#177;&#209;&#128;&#208;&#176;&#208;&#189;&#208;&#189;&#208;&#190;&#208;&#181;" clip-path="url(#clip0_71_71)">
<rect width="1440" height="1024" transform="translate(-692 -479)" fill="#EEEEEE"/>
<g id="Frame 276">
<rect x="-561" y="-323" width="1170" height="829" rx="34" fill="white"/>
<g id="Group 180">
<g id="Frame 277">
<rect x="-86" y="-148" width="386" height="386" rx="30" fill="#EAEAEA"/>
</g>
</g>
</g>
<g id="Wireframe - 1">
<rect width="1440" height="1024" transform="translate(-692 -479)" fill="#292929" fill-opacity="0.34"/>
<g id="Frame 2608183">
<rect x="-313" y="-127" width="681" height="319" rx="33" fill="white"/>
<path id="Vector" d="M53.8781 6.75035L48.1887 1.11522C47.4778 0.400995 46.5155 0 45.5123 0C44.5091 0 43.5467 0.400995 42.8359 1.11522L20.8606 22.9573L20.8345 22.931L12.1487 14.4951C11.436 13.7835 10.4732 13.3855 9.47054 13.3882C8.46792 13.3909 7.50714 13.794 6.79827 14.5094L1.10886 20.2498C0.398811 20.9673 0 21.9398 0 22.9537C0 23.9677 0.398811 24.9402 1.10886 25.6577L18.087 42.8788C18.4392 43.2343 18.8574 43.5162 19.3176 43.7086C19.7779 43.901 20.2711 44 20.7693 44C21.2675 44 21.7608 43.901 22.221 43.7086C22.6812 43.5162 23.0994 43.2343 23.4516 42.8788L53.8899 12.1726C54.2429 11.8163 54.5226 11.3931 54.7131 10.9275C54.9036 10.4618 55.0011 9.96277 55 9.459C54.9989 8.95522 54.8992 8.45663 54.7067 7.99182C54.5142 7.527 54.2326 7.10511 53.8781 6.75035ZM20.7705 40.1785L3.79236 22.9573L9.48177 17.217L9.50784 17.2433L18.1937 25.6792C18.9039 26.3891 19.8632 26.7873 20.8629 26.7873C21.8627 26.7873 22.822 26.3891 23.5322 25.6792L45.5289 3.82276L51.2041 9.46746L20.7705 40.1785Z" fill="black"/>
</g>
</g>
</g>
<defs>
<clipPath id="clip0_71_71">
<rect width="1440" height="1024" fill="white" transform="translate(-692 -479)"/>
</clipPath>
</defs>
</svg>
