<svg width="22" height="22" viewBox="0 0 22 22" fill="none" xmlns="http://www.w3.org/2000/svg">
<path fill-rule="evenodd" clip-rule="evenodd" d="M1.85526 1.14645C1.66 0.951184 1.34341 0.951184 1.14815 1.14645C0.95289 1.34171 0.95289 1.65829 1.14815 1.85355L10.4416 11.147L1.15044 20.2316C0.952997 20.4247 0.949441 20.7413 1.1425 20.9387C1.33555 21.1361 1.65211 21.1397 1.84956 20.9466L11.1487 11.8541L20.3608 21.0662C20.5561 21.2615 20.8726 21.2615 21.0679 21.0662C21.2632 20.8709 21.2632 20.5543 21.0679 20.3591L11.8638 11.155L21.0622 2.16095C21.2596 1.96789 21.2632 1.65133 21.0701 1.45388C20.8771 1.25644 20.5605 1.25288 20.3631 1.44594L11.1566 10.4478L1.85526 1.14645Z" fill="#333333"/>
<path d="M1.14815 1.14645L0.794598 0.792893L0.794598 0.792893L1.14815 1.14645ZM1.85526 1.14645L2.20881 0.792893L2.20881 0.792893L1.85526 1.14645ZM1.14815 1.85355L0.794598 2.20711L0.794598 2.20711L1.14815 1.85355ZM10.4416 11.147L10.7911 11.5045L11.1527 11.151L10.7951 10.7934L10.4416 11.147ZM1.15044 20.2316L1.5 20.5891H1.5L1.15044 20.2316ZM1.1425 20.9387L1.5 20.5891L1.1425 20.9387ZM1.84956 20.9466L1.5 20.5891L1.5 20.5891L1.84956 20.9466ZM11.1487 11.8541L11.5023 11.5006L11.1527 11.151L10.7992 11.4966L11.1487 11.8541ZM21.0679 21.0662L21.4215 21.4197L21.4215 21.4197L21.0679 21.0662ZM21.0679 20.3591L21.4215 20.0055L21.4215 20.0055L21.0679 20.3591ZM11.8638 11.155L11.5142 10.7975L11.1527 11.151L11.5102 11.5085L11.8638 11.155ZM21.0622 2.16095L21.4118 2.51845V2.51845L21.0622 2.16095ZM21.0701 1.45388L21.4277 1.10432V1.10432L21.0701 1.45388ZM20.3631 1.44594L20.0135 1.08843V1.08844L20.3631 1.44594ZM11.1566 10.4478L10.8031 10.8014L11.1527 11.151L11.5062 10.8053L11.1566 10.4478ZM1.50171 1.5L1.50171 1.5L2.20881 0.792893C1.81829 0.402369 1.18512 0.402369 0.794598 0.792893L1.50171 1.5ZM1.50171 1.5L1.50171 1.5L0.794598 0.792893C0.404074 1.18342 0.404074 1.81658 0.794598 2.20711L1.50171 1.5ZM10.7951 10.7934L1.50171 1.5L0.794598 2.20711L10.088 11.5005L10.7951 10.7934ZM1.5 20.5891L10.7911 11.5045L10.092 10.7895L0.800883 19.8741L1.5 20.5891ZM1.5 20.5891L1.5 20.5891L0.800884 19.8741C0.405993 20.2602 0.398883 20.8934 0.784995 21.2883L1.5 20.5891ZM1.5 20.5891L1.5 20.5891L0.784995 21.2883C1.1711 21.6831 1.80423 21.6903 2.19912 21.3041L1.5 20.5891ZM10.7992 11.4966L1.5 20.5891L2.19912 21.3041L11.4983 12.2116L10.7992 11.4966ZM20.7143 20.7126L11.5023 11.5006L10.7952 12.2077L20.0072 21.4197L20.7143 20.7126ZM20.7143 20.7126L20.0072 21.4197C20.3978 21.8103 21.0309 21.8103 21.4215 21.4197L20.7143 20.7126ZM20.7143 20.7126V20.7126L21.4215 21.4197C21.812 21.0292 21.812 20.3961 21.4215 20.0055L20.7143 20.7126ZM11.5102 11.5085L20.7143 20.7126L21.4215 20.0055L12.2173 10.8014L11.5102 11.5085ZM20.7126 1.80344L11.5142 10.7975L12.2133 11.5125L21.4118 2.51845L20.7126 1.80344ZM20.7126 1.80344L20.7126 1.80344L21.4118 2.51845C21.8066 2.13234 21.8138 1.49921 21.4277 1.10432L20.7126 1.80344ZM20.7126 1.80344L20.7126 1.80344L21.4277 1.10432C21.0415 0.709437 20.4084 0.702325 20.0135 1.08843L20.7126 1.80344ZM11.5062 10.8053L20.7126 1.80344L20.0135 1.08844L10.8071 10.0903L11.5062 10.8053ZM1.50171 1.5L10.8031 10.8014L11.5102 10.0943L2.20881 0.792893L1.50171 1.5Z" fill="#333333"/>
</svg>
