<svg width="34" height="33" viewBox="0 0 34 33" fill="none" xmlns="http://www.w3.org/2000/svg">
<path d="M21.3541 28.6426C16.5178 30.5043 11.0042 30.3851 11.0042 30.3851L10.7915 22.1407C10.7915 22.1407 14.6918 11.6507 18 10.4999L18.0295 10.4896C21.371 9.32729 27.1261 7.32532 29.9334 11.4999C31.5137 13.8499 33.2602 19.2558 29.9334 22.9916C26.6065 26.7274 26.1904 26.7808 21.3541 28.6426Z" fill="url(#paint0_linear_2186_8492)"/>
<path d="M11.5 31L11.1289 31.3351L11.5 31.746L11.8711 31.3351L11.5 31ZM11.5 31C11.8711 31.3351 11.8711 31.335 11.8713 31.3349L11.8718 31.3344L11.8734 31.3325L11.8796 31.3257L11.903 31.2995C11.9235 31.2766 11.9536 31.2428 11.9927 31.1985C12.0709 31.11 12.185 30.9797 12.33 30.8115C12.6199 30.475 13.0332 29.9863 13.5289 29.3756C14.5197 28.1548 15.8416 26.4435 17.1645 24.4828C18.4864 22.5235 19.8155 20.306 20.8157 18.0736C21.8129 15.8476 22.5 13.5699 22.5 11.5C22.5 8.58262 21.3411 5.78473 19.2782 3.72183C17.2153 1.65893 14.4174 0.5 11.5 0.5C8.58262 0.5 5.78473 1.65893 3.72183 3.72183C1.65893 5.78473 0.5 8.58262 0.5 11.5C0.5 13.5699 1.18711 15.8476 2.18432 18.0736C3.18447 20.306 4.51358 22.5235 5.83552 24.4828C7.15842 26.4435 8.48033 28.1548 9.47115 29.3756C9.96678 29.9863 10.3801 30.475 10.67 30.8115C10.815 30.9797 10.9291 31.11 11.0073 31.1985C11.0464 31.2428 11.0765 31.2766 11.097 31.2995L11.1204 31.3257L11.1266 31.3325L11.1282 31.3344L11.1287 31.3349C11.1289 31.335 11.1289 31.3351 11.5 31ZM11.5 14.75C10.638 14.75 9.8114 14.4076 9.2019 13.7981C8.59241 13.1886 8.25 12.362 8.25 11.5C8.25 10.638 8.59241 9.8114 9.2019 9.2019C9.8114 8.59241 10.638 8.25 11.5 8.25C12.362 8.25 13.1886 8.59241 13.7981 9.2019C14.4076 9.8114 14.75 10.638 14.75 11.5C14.75 11.9268 14.6659 12.3494 14.5026 12.7437C14.3393 13.138 14.0999 13.4963 13.7981 13.7981C13.4963 14.0999 13.138 14.3393 12.7437 14.5026C12.3494 14.6659 11.9268 14.75 11.5 14.75Z" fill="#3DA083" stroke="#91E0C8"/>
<defs>
<linearGradient id="paint0_linear_2186_8492" x1="12.7729" y1="30.9851" x2="34.2726" y2="10.3404" gradientUnits="userSpaceOnUse">
<stop offset="0.165" stop-color="#809992"/>
<stop offset="1" stop-color="#D9D9D9" stop-opacity="0"/>
</linearGradient>
</defs>
</svg>
