<svg width="33" height="30" viewBox="0 0 33 30" fill="none" xmlns="http://www.w3.org/2000/svg">
<path d="M20.3539 27.6426C15.5176 29.5044 10.004 29.3851 10.004 29.3851L9.79129 21.1408C9.79129 21.1408 13.6915 10.6507 16.9997 9.49999L17.0293 9.48971C20.3707 8.32735 26.1258 6.32538 28.9331 10.5C30.5134 12.85 32.26 18.2559 28.9331 21.9917C25.6063 25.7275 25.1902 25.7809 20.3539 27.6426Z" fill="url(#paint0_linear_2788_3145)"/>
<path d="M10.5 14.25C9.50544 14.25 8.55161 13.8549 7.84835 13.1517C7.14509 12.4484 6.75 11.4946 6.75 10.5C6.75 9.50544 7.14509 8.55161 7.84835 7.84835C8.55161 7.14509 9.50544 6.75 10.5 6.75C11.4946 6.75 12.4484 7.14509 13.1517 7.84835C13.8549 8.55161 14.25 9.50544 14.25 10.5C14.25 10.9925 14.153 11.4801 13.9645 11.9351C13.7761 12.39 13.4999 12.8034 13.1517 13.1517C12.8034 13.4999 12.39 13.7761 11.9351 13.9645C11.4801 14.153 10.9925 14.25 10.5 14.25ZM10.5 0C7.71523 0 5.04451 1.10625 3.07538 3.07538C1.10625 5.04451 0 7.71523 0 10.5C0 18.375 10.5 30 10.5 30C10.5 30 21 18.375 21 10.5C21 7.71523 19.8938 5.04451 17.9246 3.07538C15.9555 1.10625 13.2848 0 10.5 0Z" fill="#F08080"/>
<defs>
<linearGradient id="paint0_linear_2788_3145" x1="11.7727" y1="29.9852" x2="33.2724" y2="9.34045" gradientUnits="userSpaceOnUse">
<stop offset="0.165" stop-color="#809992"/>
<stop offset="1" stop-color="#D9D9D9" stop-opacity="0"/>
</linearGradient>
</defs>
</svg>
