<svg width="19" height="23" viewBox="0 0 19 23" fill="none" xmlns="http://www.w3.org/2000/svg">
<path d="M9.5 0C4.5125 0 0 3.76369 0 9.58455C0 13.3015 2.90938 17.673 8.71625 22.7107C9.1675 23.0964 9.84437 23.0964 10.2956 22.7107C16.0906 17.673 19 13.3015 19 9.58455C19 3.76369 14.4875 0 9.5 0ZM9.5 11.6885C8.19375 11.6885 7.125 10.6365 7.125 9.35078C7.125 8.06505 8.19375 7.01309 9.5 7.01309C10.8062 7.01309 11.875 8.06505 11.875 9.35078C11.875 10.6365 10.8062 11.6885 9.5 11.6885Z" fill="#08109D"/>
</svg>
