<svg width="24" height="24" viewBox="0 0 24 24" fill="none" xmlns="http://www.w3.org/2000/svg">
<path d="M11.75 2C8.02344 2 5 4.87766 5 8.42188C5 12.5 9.5 18.9627 11.1523 21.1948C11.2209 21.2891 11.3108 21.3657 11.4147 21.4186C11.5186 21.4715 11.6335 21.499 11.75 21.499C11.8665 21.499 11.9814 21.4715 12.0853 21.4186C12.1892 21.3657 12.2791 21.2891 12.3477 21.1948C14 18.9636 18.5 12.5033 18.5 8.42188C18.5 4.87766 15.4766 2 11.75 2Z" stroke="black" stroke-width="1.5" stroke-linecap="round" stroke-linejoin="round"/>
<path d="M12 11.25C13.2426 11.25 14.25 10.2426 14.25 9C14.25 7.75736 13.2426 6.75 12 6.75C10.7574 6.75 9.75 7.75736 9.75 9C9.75 10.2426 10.7574 11.25 12 11.25Z" stroke="black" stroke-width="1.5" stroke-linecap="round" stroke-linejoin="round"/>
</svg>
