<svg width="175" height="31" viewBox="0 0 175 31" fill="none" xmlns="http://www.w3.org/2000/svg">
<g filter="url(#filter0_d_1054_1877)">
<path d="M8.54492 22.3281C6.91341 22.3281 5.50977 22.0137 4.33398 21.3848C3.1582 20.7559 2.2513 19.8535 1.61328 18.6777C0.984375 17.4928 0.669922 16.0801 0.669922 14.4395V14.4258C0.669922 12.7943 0.984375 11.3952 1.61328 10.2285C2.2513 9.05273 3.15365 8.15039 4.32031 7.52148C5.49609 6.89258 6.89062 6.57812 8.50391 6.57812C9.97135 6.57812 11.2565 6.84701 12.3594 7.38477C13.4714 7.91341 14.3327 8.66081 14.9434 9.62695C15.5632 10.5931 15.873 11.7279 15.873 13.0312V13.1133H10.7734L10.7598 12.9766C10.696 12.293 10.4727 11.7507 10.0898 11.3496C9.70703 10.9395 9.21484 10.7344 8.61328 10.7344C8.13021 10.7344 7.72005 10.8802 7.38281 11.1719C7.04557 11.4544 6.79036 11.8737 6.61719 12.4297C6.44401 12.9766 6.35742 13.6465 6.35742 14.4395V14.4531C6.35742 15.2552 6.43945 15.9342 6.60352 16.4902C6.77669 17.0462 7.0319 17.4655 7.36914 17.748C7.70638 18.0306 8.12109 18.1719 8.61328 18.1719C9.24219 18.1719 9.73893 17.9714 10.1035 17.5703C10.4772 17.1693 10.696 16.6224 10.7598 15.9297L10.7734 15.793H15.873V15.875C15.873 17.1055 15.5814 18.2083 14.998 19.1836C14.4238 20.1497 13.5898 20.9154 12.4961 21.4805C11.4023 22.0456 10.0853 22.3281 8.54492 22.3281ZM25.0879 22.3281C23.4382 22.3281 22.0208 22.0228 20.8359 21.4121C19.651 20.7923 18.7396 19.8991 18.1016 18.7324C17.4727 17.5566 17.1582 16.1348 17.1582 14.4668V14.4395C17.1582 12.7988 17.4818 11.3906 18.1289 10.2148C18.7852 9.03906 19.7057 8.14128 20.8906 7.52148C22.0755 6.89258 23.4746 6.57812 25.0879 6.57812C26.7103 6.57812 28.1139 6.88802 29.2988 7.50781C30.4837 8.1276 31.3997 9.02539 32.0469 10.2012C32.7031 11.3678 33.0312 12.7806 33.0312 14.4395V14.4668C33.0312 16.1439 32.7122 17.5703 32.0742 18.7461C31.4362 19.9128 30.5247 20.8014 29.3398 21.4121C28.1549 22.0228 26.7376 22.3281 25.0879 22.3281ZM25.1016 18.1719C25.5664 18.1719 25.9674 18.0306 26.3047 17.748C26.6419 17.4564 26.8971 17.0371 27.0703 16.4902C27.2526 15.9342 27.3438 15.2598 27.3438 14.4668V14.4395C27.3438 13.6556 27.248 12.9902 27.0566 12.4434C26.8743 11.8874 26.6146 11.4635 26.2773 11.1719C25.9401 10.8802 25.5436 10.7344 25.0879 10.7344C24.6322 10.7344 24.2357 10.8802 23.8984 11.1719C23.5612 11.4635 23.3014 11.8874 23.1191 12.4434C22.9368 12.9902 22.8457 13.6556 22.8457 14.4395V14.4668C22.8457 15.2598 22.9323 15.9342 23.1055 16.4902C23.2878 17.0371 23.5475 17.4564 23.8848 17.748C24.222 18.0306 24.6276 18.1719 25.1016 18.1719ZM36.1211 22V10.9531H34.125V6.90625H36.1211V6.31836C36.1211 4.81445 36.5449 3.71159 37.3926 3.00977C38.2402 2.29883 39.735 1.94336 41.877 1.94336C42.3509 1.94336 42.8294 1.96615 43.3125 2.01172C43.7956 2.05729 44.1784 2.11198 44.4609 2.17578V5.52539C44.3333 5.49805 44.1738 5.47982 43.9824 5.4707C43.8001 5.45247 43.6178 5.44336 43.4355 5.44336C42.7702 5.44336 42.2917 5.54818 42 5.75781C41.7083 5.96745 41.5625 6.24544 41.5625 6.5918V6.90625H44.4609V10.9531H41.7266V22H36.1211ZM47.5508 22V10.9531H45.5547V6.90625H47.5508V6.31836C47.5508 4.81445 47.9746 3.71159 48.8223 3.00977C49.6699 2.29883 51.1647 1.94336 53.3066 1.94336C53.7806 1.94336 54.2591 1.96615 54.7422 2.01172C55.2253 2.05729 55.6081 2.11198 55.8906 2.17578V5.52539C55.763 5.49805 55.6035 5.47982 55.4121 5.4707C55.2298 5.45247 55.0475 5.44336 54.8652 5.44336C54.1999 5.44336 53.7214 5.54818 53.4297 5.75781C53.138 5.96745 52.9922 6.24544 52.9922 6.5918V6.90625H55.8906V10.9531H53.1562V22H47.5508ZM64.4355 22.3281C62.804 22.3281 61.4004 22.0137 60.2246 21.3848C59.0488 20.7559 58.1419 19.8535 57.5039 18.6777C56.875 17.4928 56.5605 16.0846 56.5605 14.4531V14.4395C56.5605 12.7988 56.875 11.3952 57.5039 10.2285C58.1328 9.05273 59.0215 8.15039 60.1699 7.52148C61.3275 6.89258 62.6901 6.57812 64.2578 6.57812C65.8255 6.57812 67.1836 6.88802 68.332 7.50781C69.4896 8.1276 70.3828 9.0026 71.0117 10.1328C71.6497 11.263 71.9688 12.5938 71.9688 14.125V15.7109H59.2949V12.5391H69.3711L66.7871 15.5195V13.3594C66.7871 12.7487 66.6868 12.2246 66.4863 11.7871C66.2949 11.3496 66.0215 11.0169 65.666 10.7891C65.3105 10.5521 64.8913 10.4336 64.4082 10.4336C63.9251 10.4336 63.5059 10.5521 63.1504 10.7891C62.7949 11.0169 62.5169 11.3496 62.3164 11.7871C62.125 12.2246 62.0293 12.7487 62.0293 13.3594V15.5469C62.0293 16.1576 62.1296 16.6816 62.3301 17.1191C62.5306 17.5566 62.8177 17.8939 63.1914 18.1309C63.5651 18.3587 64.0163 18.4727 64.5449 18.4727C65.0371 18.4727 65.4473 18.3952 65.7754 18.2402C66.1035 18.0762 66.3587 17.8893 66.541 17.6797C66.7324 17.4701 66.8509 17.2923 66.8965 17.1465L66.9102 17.1055H71.9004L71.8594 17.2832C71.75 17.7754 71.5449 18.3132 71.2441 18.8965C70.9434 19.4707 70.5104 20.0221 69.9453 20.5508C69.3802 21.0703 68.6465 21.4987 67.7441 21.8359C66.8509 22.1641 65.748 22.3281 64.4355 22.3281ZM81.1699 22.3281C79.5384 22.3281 78.1348 22.0137 76.959 21.3848C75.7832 20.7559 74.8763 19.8535 74.2383 18.6777C73.6094 17.4928 73.2949 16.0846 73.2949 14.4531V14.4395C73.2949 12.7988 73.6094 11.3952 74.2383 10.2285C74.8672 9.05273 75.7559 8.15039 76.9043 7.52148C78.0618 6.89258 79.4245 6.57812 80.9922 6.57812C82.5599 6.57812 83.918 6.88802 85.0664 7.50781C86.224 8.1276 87.1172 9.0026 87.7461 10.1328C88.3841 11.263 88.7031 12.5938 88.7031 14.125V15.7109H76.0293V12.5391H86.1055L83.5215 15.5195V13.3594C83.5215 12.7487 83.4212 12.2246 83.2207 11.7871C83.0293 11.3496 82.7559 11.0169 82.4004 10.7891C82.0449 10.5521 81.6257 10.4336 81.1426 10.4336C80.6595 10.4336 80.2402 10.5521 79.8848 10.7891C79.5293 11.0169 79.2513 11.3496 79.0508 11.7871C78.8594 12.2246 78.7637 12.7487 78.7637 13.3594V15.5469C78.7637 16.1576 78.8639 16.6816 79.0645 17.1191C79.265 17.5566 79.5521 17.8939 79.9258 18.1309C80.2995 18.3587 80.7507 18.4727 81.2793 18.4727C81.7715 18.4727 82.1816 18.3952 82.5098 18.2402C82.8379 18.0762 83.0931 17.8893 83.2754 17.6797C83.4668 17.4701 83.5853 17.2923 83.6309 17.1465L83.6445 17.1055H88.6348L88.5938 17.2832C88.4844 17.7754 88.2793 18.3132 87.9785 18.8965C87.6777 19.4707 87.2448 20.0221 86.6797 20.5508C86.1146 21.0703 85.3809 21.4987 84.4785 21.8359C83.5853 22.1641 82.4824 22.3281 81.1699 22.3281ZM103.414 27.1133C101.901 27.1133 100.584 26.9128 99.4629 26.5117C98.3418 26.1107 97.4577 25.5638 96.8105 24.8711C96.1725 24.1784 95.8034 23.3991 95.7031 22.5332L95.6895 22.4102H101.076L101.104 22.4785C101.195 22.6882 101.432 22.916 101.814 23.1621C102.206 23.4082 102.753 23.5312 103.455 23.5312C104.266 23.5312 104.868 23.3581 105.26 23.0117C105.652 22.6745 105.848 22.2415 105.848 21.7129V19.0332H105.738C105.51 19.5345 105.178 19.9674 104.74 20.332C104.312 20.6875 103.797 20.9655 103.195 21.166C102.603 21.3574 101.942 21.4531 101.213 21.4531C99.9642 21.4531 98.9023 21.1751 98.0273 20.6191C97.1523 20.054 96.487 19.2337 96.0312 18.1582C95.5846 17.0827 95.3613 15.7702 95.3613 14.2207V14.207C95.3613 12.5573 95.5892 11.1673 96.0449 10.0371C96.5098 8.9069 97.1797 8.05013 98.0547 7.4668C98.9388 6.87435 100.014 6.57812 101.281 6.57812C101.992 6.57812 102.639 6.69661 103.223 6.93359C103.806 7.16146 104.307 7.49414 104.727 7.93164C105.155 8.36914 105.488 8.89779 105.725 9.51758H105.848V6.90625H111.453V21.5762C111.453 22.6517 111.125 23.6042 110.469 24.4336C109.822 25.2721 108.896 25.9284 107.693 26.4023C106.49 26.8763 105.064 27.1133 103.414 27.1133ZM103.455 17.707C103.947 17.707 104.376 17.5794 104.74 17.3242C105.105 17.0599 105.383 16.6816 105.574 16.1895C105.775 15.6973 105.875 15.1048 105.875 14.4121V14.3984C105.875 13.6966 105.775 13.0996 105.574 12.6074C105.374 12.1152 105.091 11.7415 104.727 11.4863C104.371 11.222 103.947 11.0898 103.455 11.0898C102.972 11.0898 102.548 11.222 102.184 11.4863C101.828 11.7415 101.55 12.1152 101.35 12.6074C101.149 13.0905 101.049 13.6829 101.049 14.3848V14.3984C101.049 15.082 101.145 15.6745 101.336 16.1758C101.536 16.668 101.819 17.0462 102.184 17.3105C102.548 17.5749 102.972 17.707 103.455 17.707ZM118.713 22.3281C117.61 22.3281 116.671 22.1048 115.896 21.6582C115.122 21.2025 114.534 20.5462 114.133 19.6895C113.732 18.8327 113.531 17.8027 113.531 16.5996V6.90625H119.137V15.3691C119.137 16.1257 119.314 16.7227 119.67 17.1602C120.025 17.5977 120.554 17.8164 121.256 17.8164C121.702 17.8164 122.081 17.7116 122.391 17.502C122.71 17.2923 122.956 17.0052 123.129 16.6406C123.302 16.2669 123.389 15.8477 123.389 15.3828V6.90625H128.994V22H123.389V19.1973H123.279C122.915 20.2181 122.345 20.9974 121.57 21.5352C120.805 22.0638 119.852 22.3281 118.713 22.3281ZM131.1 22V6.90625H136.705V22H131.1ZM133.902 5.55273C133.118 5.55273 132.458 5.28841 131.92 4.75977C131.391 4.23112 131.127 3.60677 131.127 2.88672C131.127 2.15755 131.391 1.5332 131.92 1.01367C132.458 0.485026 133.118 0.220703 133.902 0.220703C134.686 0.220703 135.342 0.485026 135.871 1.01367C136.409 1.5332 136.678 2.15755 136.678 2.88672C136.678 3.60677 136.409 4.23112 135.871 4.75977C135.342 5.28841 134.686 5.55273 133.902 5.55273ZM144.32 22.3281C143.072 22.3281 142.005 22.0228 141.121 21.4121C140.246 20.7923 139.576 19.8991 139.111 18.7324C138.656 17.5566 138.428 16.1302 138.428 14.4531V14.4395C138.428 12.7533 138.656 11.3268 139.111 10.1602C139.576 8.98438 140.246 8.0957 141.121 7.49414C142.005 6.88346 143.081 6.57812 144.348 6.57812C145.432 6.57812 146.362 6.84701 147.137 7.38477C147.911 7.92253 148.477 8.66992 148.832 9.62695H148.941V2.27148H154.547V22H148.941V19.416H148.832C148.495 20.3275 147.93 21.043 147.137 21.5625C146.353 22.0729 145.414 22.3281 144.32 22.3281ZM146.521 17.8164C147.014 17.8164 147.442 17.6842 147.807 17.4199C148.171 17.1556 148.449 16.7728 148.641 16.2715C148.841 15.7702 148.941 15.1686 148.941 14.4668V14.4531C148.941 13.7422 148.841 13.1361 148.641 12.6348C148.44 12.1335 148.158 11.7507 147.793 11.4863C147.438 11.222 147.014 11.0898 146.521 11.0898C146.038 11.0898 145.615 11.222 145.25 11.4863C144.895 11.7507 144.617 12.1335 144.416 12.6348C144.215 13.1361 144.115 13.7376 144.115 14.4395V14.4531C144.115 15.1458 144.211 15.7428 144.402 16.2441C144.603 16.7454 144.885 17.1328 145.25 17.4062C145.615 17.6797 146.038 17.8164 146.521 17.8164ZM164.158 22.3281C162.527 22.3281 161.123 22.0137 159.947 21.3848C158.771 20.7559 157.865 19.8535 157.227 18.6777C156.598 17.4928 156.283 16.0846 156.283 14.4531V14.4395C156.283 12.7988 156.598 11.3952 157.227 10.2285C157.855 9.05273 158.744 8.15039 159.893 7.52148C161.05 6.89258 162.413 6.57812 163.98 6.57812C165.548 6.57812 166.906 6.88802 168.055 7.50781C169.212 8.1276 170.105 9.0026 170.734 10.1328C171.372 11.263 171.691 12.5938 171.691 14.125V15.7109H159.018V12.5391H169.094L166.51 15.5195V13.3594C166.51 12.7487 166.41 12.2246 166.209 11.7871C166.018 11.3496 165.744 11.0169 165.389 10.7891C165.033 10.5521 164.614 10.4336 164.131 10.4336C163.648 10.4336 163.229 10.5521 162.873 10.7891C162.518 11.0169 162.24 11.3496 162.039 11.7871C161.848 12.2246 161.752 12.7487 161.752 13.3594V15.5469C161.752 16.1576 161.852 16.6816 162.053 17.1191C162.253 17.5566 162.54 17.8939 162.914 18.1309C163.288 18.3587 163.739 18.4727 164.268 18.4727C164.76 18.4727 165.17 18.3952 165.498 18.2402C165.826 18.0762 166.081 17.8893 166.264 17.6797C166.455 17.4701 166.574 17.2923 166.619 17.1465L166.633 17.1055H171.623L171.582 17.2832C171.473 17.7754 171.268 18.3132 170.967 18.8965C170.666 19.4707 170.233 20.0221 169.668 20.5508C169.103 21.0703 168.369 21.4987 167.467 21.8359C166.574 22.1641 165.471 22.3281 164.158 22.3281Z" fill="#08109D"/>
</g>
<defs>
<filter id="filter0_d_1054_1877" x="0.669922" y="0.220703" width="174.021" height="29.8926" filterUnits="userSpaceOnUse" color-interpolation-filters="sRGB">
<feFlood flood-opacity="0" result="BackgroundImageFix"/>
<feColorMatrix in="SourceAlpha" type="matrix" values="0 0 0 0 0 0 0 0 0 0 0 0 0 0 0 0 0 0 127 0" result="hardAlpha"/>
<feOffset dx="3" dy="3"/>
<feComposite in2="hardAlpha" operator="out"/>
<feColorMatrix type="matrix" values="0 0 0 0 0.85098 0 0 0 0 0.721569 0 0 0 0 1 0 0 0 1 0"/>
<feBlend mode="normal" in2="BackgroundImageFix" result="effect1_dropShadow_1054_1877"/>
<feBlend mode="normal" in="SourceGraphic" in2="effect1_dropShadow_1054_1877" result="shape"/>
</filter>
</defs>
</svg>
