<svg width="24" height="24" viewBox="0 0 24 24" fill="none" xmlns="http://www.w3.org/2000/svg">
<path d="M1.33333 8.00004V4.00004C1.33333 3.2928 1.61428 2.61452 2.11438 2.11442C2.61447 1.61433 3.29275 1.33337 3.99999 1.33337H8M22.6667 16V20C22.6667 20.7073 22.3857 21.3856 21.8856 21.8857C21.3855 22.3858 20.7072 22.6667 20 22.6667H16M16 1.33337H20C20.7072 1.33337 21.3855 1.61433 21.8856 2.11442C22.3857 2.61452 22.6667 3.2928 22.6667 4.00004V8.00004M8 22.6667H3.99999C3.29275 22.6667 2.61447 22.3858 2.11438 21.8857C1.61428 21.3856 1.33333 20.7073 1.33333 20V16" stroke="#CCC7C5" stroke-width="2.66667" stroke-linecap="round" stroke-linejoin="round"/>
</svg>
