<svg width="16" height="16" viewBox="0 0 16 16" fill="none" xmlns="http://www.w3.org/2000/svg">
<path d="M15.8206 9.58426C15.7401 9.50358 15.6391 9.44634 15.5285 9.4187C15.4179 9.39105 15.3019 9.39404 15.1929 9.42734C13.996 9.78917 12.7234 9.8195 11.5107 9.51512C10.298 9.21074 9.19052 8.58303 8.30639 7.6989C7.42225 6.81477 6.79455 5.70733 6.49016 4.49459C6.18578 3.28185 6.21612 2.00925 6.57794 0.812398C6.61153 0.703339 6.61474 0.58719 6.58725 0.476441C6.55975 0.365691 6.50258 0.264533 6.4219 0.183844C6.34121 0.103155 6.24005 0.045989 6.1293 0.0184935C6.01855 -0.00900191 5.9024 -0.00578629 5.79334 0.0277945C4.13863 0.534683 2.68595 1.55055 1.64201 2.93083C0.729052 4.14293 0.172173 5.58559 0.0339341 7.09673C-0.104305 8.60788 0.181573 10.1276 0.85945 11.4853C1.53733 12.8429 2.58034 13.9846 3.87132 14.7821C5.1623 15.5797 6.6501 16.0014 8.16755 16C9.93789 16.0054 11.6611 15.4299 13.0729 14.3617C14.4532 13.3178 15.469 11.8651 15.9759 10.2104C16.0091 10.1017 16.0122 9.9861 15.9848 9.87583C15.9575 9.76557 15.9007 9.66479 15.8206 9.58426Z" fill="#FBF8CC"/>
</svg>
