<svg width="27" height="27" viewBox="0 0 27 27" fill="none" xmlns="http://www.w3.org/2000/svg">
<path d="M25.2285 10.2611C25.1264 9.94614 24.9338 9.66822 24.6748 9.46193C24.4158 9.25563 24.1018 9.13009 23.772 9.10093L17.5082 8.56093L15.0529 2.72218C14.9251 2.41581 14.7095 2.15411 14.4332 1.97004C14.1569 1.78597 13.8324 1.68774 13.5004 1.68774C13.1684 1.68774 12.8439 1.78597 12.5676 1.97004C12.2914 2.15411 12.0757 2.41581 11.9479 2.72218L9.49998 8.56093L3.22881 9.1041C2.89768 9.13192 2.58213 9.25689 2.32174 9.46334C2.06134 9.66979 1.8677 9.94852 1.76509 10.2646C1.66247 10.5806 1.65546 10.92 1.74493 11.24C1.83439 11.56 2.01635 11.8465 2.26799 12.0635L7.02569 16.2211L5.59975 22.3953C5.52435 22.7184 5.54586 23.0565 5.6616 23.3675C5.77735 23.6784 5.98218 23.9483 6.25049 24.1435C6.5188 24.3386 6.83868 24.4504 7.17015 24.4647C7.50162 24.479 7.82996 24.3953 8.11412 24.2241L13.493 20.9546L18.8835 24.2241C19.1677 24.3953 19.496 24.479 19.8275 24.4647C20.159 24.4504 20.4789 24.3386 20.7472 24.1435C21.0155 23.9483 21.2203 23.6784 21.3361 23.3675C21.4518 23.0565 21.4733 22.7184 21.3979 22.3953L19.973 16.2148L24.7297 12.0635C24.9813 11.8458 25.1629 11.5585 25.2516 11.2378C25.3404 10.917 25.3324 10.5772 25.2285 10.2611ZM23.6233 10.7884L18.8667 14.9397C18.6352 15.1411 18.4629 15.4017 18.3685 15.6937C18.2741 15.9856 18.2611 16.2978 18.3309 16.5966L19.76 22.7813L14.3737 19.5118C14.1109 19.3517 13.8092 19.2671 13.5015 19.2671C13.1938 19.2671 12.892 19.3517 12.6292 19.5118L7.25034 22.7813L8.66995 16.6008C8.73971 16.302 8.72669 15.9899 8.63229 15.6979C8.53788 15.406 8.36567 15.1453 8.13416 14.9439L3.37541 10.7948C3.37503 10.7916 3.37503 10.7884 3.37541 10.7853L9.64448 10.2432C9.95055 10.2162 10.2434 10.1061 10.4916 9.92493C10.7397 9.74371 10.9336 9.49819 11.0525 9.21484L13.5004 3.38347L15.9473 9.21484C16.0661 9.49819 16.2601 9.74371 16.5082 9.92493C16.7563 10.1061 17.0492 10.2162 17.3553 10.2432L23.6254 10.7853C23.6254 10.7853 23.6254 10.7916 23.6254 10.7927L23.6233 10.7884Z" fill="black"/>
</svg>
