<svg width="27" height="27" viewBox="0 0 27 27" fill="none" xmlns="http://www.w3.org/2000/svg">
<path d="M25.2285 10.2608C25.1264 9.9459 24.9338 9.66797 24.6748 9.46168C24.4158 9.25539 24.1018 9.12985 23.772 9.10069L17.5082 8.56069L15.0529 2.72194C14.9251 2.41557 14.7095 2.15387 14.4332 1.9698C14.1569 1.78572 13.8324 1.6875 13.5004 1.6875C13.1684 1.6875 12.8439 1.78572 12.5676 1.9698C12.2914 2.15387 12.0757 2.41557 11.9479 2.72194L9.49998 8.56069L3.22881 9.10385C2.89768 9.13168 2.58213 9.25665 2.32174 9.4631C2.06134 9.66954 1.8677 9.94827 1.76509 10.2643C1.66247 10.5804 1.65546 10.9197 1.74493 11.2397C1.83439 11.5598 2.01635 11.8463 2.26799 12.0633L7.02569 16.2209L5.59975 22.395C5.52435 22.7181 5.54586 23.0563 5.6616 23.3672C5.77735 23.6781 5.98218 23.9481 6.25049 24.1432C6.5188 24.3384 6.83868 24.4501 7.17015 24.4645C7.50162 24.4788 7.82996 24.3951 8.11412 24.2239L13.493 20.9543L18.8835 24.2239C19.1677 24.3951 19.496 24.4788 19.8275 24.4645C20.159 24.4501 20.4789 24.3384 20.7472 24.1432C21.0155 23.9481 21.2203 23.6781 21.3361 23.3672C21.4518 23.0563 21.4733 22.7181 21.3979 22.395L19.973 16.2146L24.7297 12.0633C24.9813 11.8455 25.1629 11.5582 25.2516 11.2375C25.3404 10.9168 25.3324 10.577 25.2285 10.2608ZM23.6233 10.7882L18.8667 14.9394C18.6352 15.1408 18.4629 15.4015 18.3685 15.6934C18.2741 15.9854 18.2611 16.2976 18.3309 16.5964L19.76 22.781L14.3737 19.5115C14.1109 19.3515 13.8092 19.2668 13.5015 19.2668C13.1938 19.2668 12.892 19.3515 12.6292 19.5115L7.25034 22.781L8.66995 16.6006C8.73971 16.3018 8.72669 15.9896 8.63229 15.6977C8.53788 15.4057 8.36567 15.145 8.13416 14.9437L3.37541 10.7945C3.37503 10.7914 3.37503 10.7882 3.37541 10.785L9.64448 10.2429C9.95055 10.2159 10.2434 10.1059 10.4916 9.92469C10.7397 9.74347 10.9336 9.49794 11.0525 9.21459L13.5004 3.38323L15.9473 9.21459C16.0661 9.49794 16.2601 9.74347 16.5082 9.92469C16.7563 10.1059 17.0492 10.2159 17.3553 10.2429L23.6254 10.785C23.6254 10.785 23.6254 10.7914 23.6254 10.7924L23.6233 10.7882Z" fill="black"/>
</svg>
