<svg width="20" height="20" viewBox="0 0 20 20" fill="none" xmlns="http://www.w3.org/2000/svg">
<path d="M0.310147 19.6861L0.313821 19.6898C0.411232 19.7879 0.527078 19.8658 0.6547 19.919C0.782321 19.9722 0.9192 19.9997 1.05747 19.9998C1.17381 19.9997 1.28935 19.9805 1.39948 19.943L7.39552 17.909L18.9015 6.403C19.6049 5.69955 20 4.74549 20 3.7507C20 2.75591 19.6047 1.80188 18.9013 1.09849C18.1978 0.395093 17.2438 -4.35482e-05 16.249 3.59981e-09C15.2542 4.35554e-05 14.3002 0.395264 13.5968 1.09872L2.09077 12.6047L0.0569311 18.6006C-0.00713476 18.787 -0.0173608 18.9878 0.0274254 19.1798C0.0722116 19.3718 0.170197 19.5473 0.310147 19.6861ZM14.5522 2.05412C15.0029 1.60694 15.6123 1.35654 16.2472 1.35776C16.882 1.35898 17.4905 1.61171 17.9394 2.06062C18.3883 2.50953 18.641 3.11803 18.6422 3.75287C18.6434 4.38771 18.393 4.99717 17.9458 5.44777L16.4328 6.96082L13.0391 3.56717L14.5522 2.05412ZM3.26924 13.3371L12.0837 4.52256L15.4774 7.91622L6.66285 16.7307L1.527 18.4729L3.26924 13.3371Z" fill="black"/>
</svg>
