<svg width="40" height="40" viewBox="0 0 40 40" fill="none" xmlns="http://www.w3.org/2000/svg">
<path d="M10.3101 29.6861L10.3138 29.6898C10.4112 29.7879 10.5271 29.8658 10.6547 29.919C10.7823 29.9722 10.9192 29.9997 11.0575 29.9998C11.1738 29.9997 11.2894 29.9805 11.3995 29.943L17.3955 27.909L28.9015 16.403C29.6049 15.6995 30 14.7455 30 13.7507C30 12.7559 29.6047 11.8019 28.9013 11.0985C28.1978 10.3951 27.2438 9.99996 26.249 10C25.2542 10 24.3002 10.3953 23.5968 11.0987L12.0908 22.6047L10.0569 28.6006C9.99287 28.787 9.98264 28.9878 10.0274 29.1798C10.0722 29.3718 10.1702 29.5473 10.3101 29.6861ZM24.5522 12.0541C25.0029 11.6069 25.6123 11.3565 26.2472 11.3578C26.882 11.359 27.4905 11.6117 27.9394 12.0606C28.3883 12.5095 28.641 13.118 28.6422 13.7529C28.6434 14.3877 28.393 14.9972 27.9458 15.4478L26.4328 16.9608L23.0391 13.5672L24.5522 12.0541ZM13.2692 23.3371L22.0837 14.5226L25.4774 17.9162L16.6628 26.7307L11.527 28.4729L13.2692 23.3371Z" fill="black"/>
</svg>
