<svg width="40" height="34" viewBox="0 0 40 34" fill="none" xmlns="http://www.w3.org/2000/svg">
<path d="M24.4643 10.5C22.6205 10.5 21.0063 11.2929 20 12.633C18.9937 11.2929 17.3795 10.5 15.5357 10.5C14.0681 10.5017 12.661 11.0854 11.6232 12.1232C10.5854 13.161 10.0017 14.5681 10 16.0357C10 22.2857 19.267 27.3446 19.6616 27.5536C19.7656 27.6095 19.8819 27.6388 20 27.6388C20.1181 27.6388 20.2344 27.6095 20.3384 27.5536C20.733 27.3446 30 22.2857 30 16.0357C29.9983 14.5681 29.4146 13.161 28.3768 12.1232C27.339 11.0854 25.9319 10.5017 24.4643 10.5ZM20 26.1071C18.3696 25.1571 11.4286 20.8295 11.4286 16.0357C11.43 14.9469 11.8632 13.903 12.6331 13.1331C13.403 12.3632 14.4469 11.93 15.5357 11.9286C17.2723 11.9286 18.7304 12.8536 19.3393 14.3393C19.3931 14.4703 19.4846 14.5823 19.6023 14.6612C19.7199 14.7401 19.8584 14.7822 20 14.7822C20.1416 14.7822 20.2801 14.7401 20.3977 14.6612C20.5154 14.5823 20.6069 14.4703 20.6607 14.3393C21.2696 12.8509 22.7277 11.9286 24.4643 11.9286C25.5531 11.93 26.597 12.3632 27.3669 13.1331C28.1368 13.903 28.57 14.9469 28.5714 16.0357C28.5714 20.8223 21.6286 25.1563 20 26.1071Z" fill="black"/>
</svg>
