<svg width="27" height="24" viewBox="0 0 27 24" fill="none" xmlns="http://www.w3.org/2000/svg">
<path d="M19.0929 0C16.6591 0 14.5282 1.11026 13.2 2.98695C11.8717 1.11026 9.74089 0 7.30714 0C5.36984 0.00231647 3.51251 0.819769 2.14262 2.27302C0.772742 3.72626 0.00218358 5.69663 0 7.75183C0 16.5039 12.2324 23.5881 12.7533 23.8806C12.8906 23.959 13.0441 24 13.2 24C13.3559 24 13.5094 23.959 13.6467 23.8806C14.1676 23.5881 26.4 16.5039 26.4 7.75183C26.3978 5.69663 25.6273 3.72626 24.2574 2.27302C22.8875 0.819769 21.0302 0.00231647 19.0929 0ZM13.2 21.8552C11.0479 20.5248 1.88571 14.4647 1.88571 7.75183C1.88759 6.22708 2.45937 4.76536 3.47568 3.6872C4.49199 2.60904 5.86986 2.00246 7.30714 2.00047C9.59946 2.00047 11.5241 3.29578 12.3279 5.37627C12.3989 5.55972 12.5197 5.71663 12.675 5.82706C12.8303 5.93749 13.013 5.99645 13.2 5.99645C13.387 5.99645 13.5697 5.93749 13.725 5.82706C13.8803 5.71663 14.0011 5.55972 14.0721 5.37627C14.8759 3.29203 16.8005 2.00047 19.0929 2.00047C20.5301 2.00246 21.908 2.60904 22.9243 3.6872C23.9406 4.76536 24.5124 6.22708 24.5143 7.75183C24.5143 14.4547 15.3497 20.5236 13.2 21.8552Z" fill="#2E2E2E"/>
</svg>
