<svg width="26" height="26" viewBox="0 0 26 26" fill="none" xmlns="http://www.w3.org/2000/svg">
<path d="M24 24L16.6667 16.6667M2 10.5556C2 11.6791 2.2213 12.7916 2.65125 13.8296C3.08121 14.8676 3.71141 15.8108 4.50586 16.6052C5.30032 17.3997 6.24348 18.0299 7.28149 18.4599C8.31949 18.8898 9.43202 19.1111 10.5556 19.1111C11.6791 19.1111 12.7916 18.8898 13.8296 18.4599C14.8676 18.0299 15.8108 17.3997 16.6052 16.6052C17.3997 15.8108 18.0299 14.8676 18.4599 13.8296C18.8898 12.7916 19.1111 11.6791 19.1111 10.5556C19.1111 9.43202 18.8898 8.31949 18.4599 7.28149C18.0299 6.24348 17.3997 5.30032 16.6052 4.50586C15.8108 3.71141 14.8676 3.08121 13.8296 2.65125C12.7916 2.2213 11.6791 2 10.5556 2C9.43202 2 8.31949 2.2213 7.28149 2.65125C6.24348 3.08121 5.30032 3.71141 4.50586 4.50586C3.71141 5.30032 3.08121 6.24348 2.65125 7.28149C2.2213 8.31949 2 9.43202 2 10.5556Z" stroke="#171614" stroke-opacity="0.2" stroke-width="1.5" stroke-linecap="round" stroke-linejoin="round"/>
</svg>
