<svg width="25" height="15" viewBox="0 0 25 15" fill="none" xmlns="http://www.w3.org/2000/svg">
<path fill-rule="evenodd" clip-rule="evenodd" d="M23.9848 12.1729C23.4409 11.0774 22.724 10.0765 21.8618 9.20891C21.5735 8.88303 21.2715 8.56942 20.9568 8.26891L20.9188 8.23191C20.802 8.11876 20.6867 8.00409 20.5728 7.88791C21.7515 6.24868 22.76 4.49362 23.5828 2.64991L23.6158 2.57591L23.6388 2.49791C23.7478 2.13491 23.8718 1.44491 23.4318 0.820909C22.9758 0.176909 22.2468 0.0609087 21.7578 0.0609087H19.5108C19.0403 0.0394678 18.5751 0.167407 18.1818 0.426417C17.7884 0.685427 17.487 1.06223 17.3208 1.50291C16.8372 2.65455 16.2318 3.75113 15.5148 4.77391V2.14091C15.5148 1.80091 15.4828 1.23091 15.1178 0.750909C14.6818 0.174909 14.0508 0.0609087 13.6128 0.0609087H10.0468C9.58151 0.050202 9.12989 0.21887 8.7855 0.531983C8.44111 0.845096 8.23034 1.27867 8.19683 1.74291L8.19383 1.78791V1.83291C8.19383 2.31791 8.38583 2.67591 8.53983 2.90091C8.60883 3.00191 8.68183 3.09391 8.72883 3.15191L8.73883 3.16491C8.78883 3.22691 8.82183 3.26791 8.85483 3.31391C8.94283 3.43191 9.06783 3.61591 9.10383 4.08991V5.56291C8.38801 4.36423 7.80107 3.09315 7.35283 1.77091L7.34483 1.74891L7.33683 1.72791C7.21483 1.40891 7.01983 0.944909 6.62883 0.590909C6.17283 0.175909 5.63283 0.0609087 5.14183 0.0609087H2.86183C2.36483 0.0609087 1.76583 0.176909 1.31883 0.647909C0.879834 1.11191 0.829834 1.66791 0.829834 1.96191V2.09591L0.857834 2.22591C1.48913 5.15668 2.79007 7.90162 4.65883 10.2459C5.51321 11.5932 6.67312 12.7202 8.04448 13.5354C9.41585 14.3506 10.96 14.8311 12.5518 14.9379L12.5928 14.9409H12.6348C13.3608 14.9409 14.1178 14.8779 14.6868 14.4989C15.4538 13.9869 15.5148 13.2019 15.5148 12.8099V11.6719C15.7118 11.8319 15.9558 12.0459 16.2548 12.3339C16.6168 12.6959 16.9048 13.0099 17.1518 13.2839L17.2838 13.4299C17.4758 13.6439 17.6648 13.8549 17.8368 14.0279C18.0528 14.2449 18.3198 14.4839 18.6538 14.6609C19.0168 14.8519 19.3978 14.9389 19.8018 14.9389H22.0828C22.5638 14.9389 23.2528 14.8249 23.7378 14.2629C24.2658 13.6509 24.2258 12.8999 24.0598 12.3609L24.0298 12.2639L23.9848 12.1729ZM18.2648 12.2789C17.9549 11.9325 17.6358 11.5943 17.3078 11.2649L17.3048 11.2619C15.9478 9.95391 15.3148 9.72691 14.8668 9.72691C14.6278 9.72691 14.3648 9.75291 14.1938 9.96691C14.1168 10.069 14.0663 10.1885 14.0468 10.3149C14.0227 10.4616 14.012 10.6102 14.0148 10.7589V12.8099C14.0148 13.0649 13.9728 13.1719 13.8548 13.2499C13.6978 13.3549 13.3628 13.4399 12.6438 13.4399C11.278 13.347 9.95381 12.9312 8.78001 12.2268C7.60621 11.5224 6.61635 10.5494 5.89183 9.38791L5.88383 9.37491L5.87383 9.36291C4.13295 7.19607 2.91968 4.65415 2.32983 1.93791C2.33383 1.80791 2.36183 1.72891 2.40783 1.68091C2.45483 1.63091 2.56983 1.56091 2.86183 1.56091H5.14183C5.39483 1.56091 5.52683 1.61691 5.62183 1.70191C5.72783 1.79991 5.82183 1.96491 5.93383 2.25891C6.49383 3.90491 7.24983 5.44491 7.96683 6.57691C8.32483 7.14191 8.67683 7.61291 8.99483 7.94591C9.15383 8.11191 9.30883 8.24991 9.45783 8.34791C9.60083 8.44191 9.76383 8.51691 9.93183 8.51691C10.0198 8.51691 10.1228 8.50691 10.2218 8.46391C10.3288 8.41668 10.4168 8.335 10.4718 8.23191C10.5748 8.04391 10.6038 7.76691 10.6038 7.40391V4.03091C10.5508 3.21291 10.3038 2.75191 10.0638 2.42491C10.0152 2.3595 9.96522 2.29515 9.91383 2.23191L9.90083 2.21591C9.85819 2.16411 9.81749 2.11074 9.77883 2.05591C9.72961 1.99476 9.69998 1.92017 9.69383 1.84191C9.70168 1.76245 9.7396 1.68898 9.79983 1.63656C9.86006 1.58414 9.93805 1.55672 10.0178 1.55991H13.6128C13.8188 1.55991 13.8878 1.60991 13.9228 1.65691C13.9728 1.72191 14.0148 1.85691 14.0148 2.14091V6.66891C14.0148 7.20691 14.2628 7.57091 14.6228 7.57091C15.0368 7.57091 15.3358 7.31991 15.8578 6.79791L15.8668 6.78791L15.8748 6.77891C17.0458 5.35119 18.0025 3.76048 18.7148 2.05691L18.7188 2.04491C18.7724 1.89439 18.8737 1.76552 19.0073 1.67795C19.1409 1.59039 19.2995 1.54893 19.4588 1.55991H21.7588C22.0708 1.55991 22.1728 1.63991 22.2068 1.68691C22.2418 1.73691 22.2668 1.84391 22.2068 2.05391C21.3854 3.89026 20.37 5.63351 19.1778 7.25391L19.1698 7.26591C19.0548 7.44291 18.9278 7.63891 18.9098 7.86291C18.8898 8.10491 18.9938 8.32391 19.1768 8.55991C19.3098 8.75591 19.5848 9.02491 19.8638 9.29791L19.8898 9.32391C20.1818 9.60991 20.4988 9.91991 20.7528 10.2199L20.7598 10.2269L20.7668 10.2349C21.5242 10.9904 22.1541 11.8637 22.6318 12.8209C22.7078 13.0809 22.6618 13.2149 22.6018 13.2839C22.5328 13.3639 22.3778 13.4389 22.0838 13.4389H19.8018C19.6463 13.4427 19.4924 13.4065 19.3548 13.3339C19.1862 13.2358 19.0332 13.1132 18.9008 12.9699C18.7578 12.8269 18.6028 12.6539 18.4128 12.4429L18.2658 12.2789H18.2648Z" fill="black"/>
</svg>
