<svg width="56" height="56" viewBox="0 0 56 56" fill="none" xmlns="http://www.w3.org/2000/svg">
<rect width="56" height="56" rx="12" fill="#F2F2F2"/>
<path d="M17.3333 24V20C17.3333 19.2928 17.6142 18.6145 18.1143 18.1144C18.6144 17.6143 19.2927 17.3333 19.9999 17.3333H23.9999M38.6666 32V36C38.6666 36.7073 38.3856 37.3855 37.8855 37.8856C37.3854 38.3857 36.7072 38.6667 35.9999 38.6667H31.9999M31.9999 17.3333H35.9999C36.7072 17.3333 37.3854 17.6143 37.8855 18.1144C38.3856 18.6145 38.6666 19.2928 38.6666 20V24M23.9999 38.6667H19.9999C19.2927 38.6667 18.6144 38.3857 18.1143 37.8856C17.6142 37.3855 17.3333 36.7073 17.3333 36V32" stroke="#171614" stroke-width="2.66667" stroke-linecap="round" stroke-linejoin="round"/>
<path d="M17.3333 24V20C17.3333 19.2928 17.6142 18.6145 18.1143 18.1144C18.6144 17.6143 19.2927 17.3333 19.9999 17.3333H23.9999M38.6666 32V36C38.6666 36.7073 38.3856 37.3855 37.8855 37.8856C37.3854 38.3857 36.7072 38.6667 35.9999 38.6667H31.9999M31.9999 17.3333H35.9999C36.7072 17.3333 37.3854 17.6143 37.8855 18.1144C38.3856 18.6145 38.6666 19.2928 38.6666 20V24M23.9999 38.6667H19.9999C19.2927 38.6667 18.6144 38.3857 18.1143 37.8856C17.6142 37.3855 17.3333 36.7073 17.3333 36V32" stroke="black" stroke-opacity="0.2" stroke-width="2.66667" stroke-linecap="round" stroke-linejoin="round"/>
<path d="M17.3333 24V20C17.3333 19.2928 17.6142 18.6145 18.1143 18.1144C18.6144 17.6143 19.2927 17.3333 19.9999 17.3333H23.9999M38.6666 32V36C38.6666 36.7073 38.3856 37.3855 37.8855 37.8856C37.3854 38.3857 36.7072 38.6667 35.9999 38.6667H31.9999M31.9999 17.3333H35.9999C36.7072 17.3333 37.3854 17.6143 37.8855 18.1144C38.3856 18.6145 38.6666 19.2928 38.6666 20V24M23.9999 38.6667H19.9999C19.2927 38.6667 18.6144 38.3857 18.1143 37.8856C17.6142 37.3855 17.3333 36.7073 17.3333 36V32" stroke="black" stroke-opacity="0.2" stroke-width="2.66667" stroke-linecap="round" stroke-linejoin="round"/>
<path d="M17.3333 24V20C17.3333 19.2928 17.6142 18.6145 18.1143 18.1144C18.6144 17.6143 19.2927 17.3333 19.9999 17.3333H23.9999M38.6666 32V36C38.6666 36.7073 38.3856 37.3855 37.8855 37.8856C37.3854 38.3857 36.7072 38.6667 35.9999 38.6667H31.9999M31.9999 17.3333H35.9999C36.7072 17.3333 37.3854 17.6143 37.8855 18.1144C38.3856 18.6145 38.6666 19.2928 38.6666 20V24M23.9999 38.6667H19.9999C19.2927 38.6667 18.6144 38.3857 18.1143 37.8856C17.6142 37.3855 17.3333 36.7073 17.3333 36V32" stroke="black" stroke-opacity="0.2" stroke-width="2.66667" stroke-linecap="round" stroke-linejoin="round"/>
</svg>
