<svg width="22" height="22" viewBox="0 0 22 22" fill="none" xmlns="http://www.w3.org/2000/svg">
<path d="M2.46406 20.9381L2.46417 20.9382L2.4704 20.932L10.9808 12.4228L19.4883 20.929C19.581 21.0276 19.6924 21.1067 19.8159 21.1618L19.9177 20.9334L19.816 21.1618C19.941 21.2175 20.0759 21.2474 20.2128 21.2498C20.3496 21.2523 20.4856 21.2271 20.6125 21.1758C20.7394 21.1246 20.8547 21.0483 20.9515 20.9515L20.7747 20.7747L20.9515 20.9515C21.0483 20.8547 21.1246 20.7394 21.1758 20.6125C21.2271 20.4856 21.2523 20.3496 21.2498 20.2128C21.2474 20.0759 21.2175 19.941 21.1618 19.816L20.9334 19.9177L21.1618 19.8159C21.1067 19.6924 21.0276 19.581 20.929 19.4883L12.4228 10.9808L20.932 2.4704L20.9321 2.47051L20.9381 2.46406C21.1181 2.27085 21.2161 2.0153 21.2115 1.75125C21.2068 1.4872 21.0998 1.23527 20.9131 1.04853L20.9131 1.04852C20.7264 0.861785 20.4744 0.754818 20.2104 0.750159C19.9463 0.7455 19.6908 0.843513 19.4976 1.02355L19.4975 1.02344L19.4912 1.02966L10.9808 9.53882L2.4704 1.02966L2.47051 1.02955L2.46406 1.02355C2.27085 0.843513 2.0153 0.7455 1.75125 0.750159C1.4872 0.754818 1.23527 0.861785 1.04853 1.04853C0.861785 1.23527 0.754818 1.4872 0.750159 1.75125C0.7455 2.0153 0.843513 2.27085 1.02355 2.46406L1.02344 2.46417L1.02966 2.4704L9.53882 10.9808L1.02966 19.4912L1.02955 19.4911L1.02355 19.4976C0.843513 19.6908 0.7455 19.9463 0.750159 20.2104C0.754818 20.4744 0.861785 20.7264 1.04852 20.9131L1.04853 20.9131C1.23527 21.0998 1.4872 21.2068 1.75125 21.2115C2.0153 21.2161 2.27085 21.1181 2.46406 20.9381Z" fill="#171614" stroke="#171614" stroke-width="0.5"/>
</svg>
