<svg width="32" height="32" viewBox="0 0 32 32" fill="none" xmlns="http://www.w3.org/2000/svg">
<path d="M5.33325 12V8C5.33325 7.29276 5.6142 6.61448 6.1143 6.11438C6.6144 5.61429 7.29267 5.33334 7.99992 5.33334H11.9999M26.6666 20V24C26.6666 24.7072 26.3856 25.3855 25.8855 25.8856C25.3854 26.3857 24.7072 26.6667 23.9999 26.6667H19.9999M19.9999 5.33334H23.9999C24.7072 5.33334 25.3854 5.61429 25.8855 6.11438C26.3856 6.61448 26.6666 7.29276 26.6666 8V12M11.9999 26.6667H7.99992C7.29267 26.6667 6.6144 26.3857 6.1143 25.8856C5.6142 25.3855 5.33325 24.7072 5.33325 24V20" stroke="#171614" stroke-width="2.66667" stroke-linecap="round" stroke-linejoin="round"/>
</svg>
