<svg width="45" height="47" viewBox="0 0 45 47" fill="none" xmlns="http://www.w3.org/2000/svg">
<path d="M22.5 11.75C24.7747 11.75 26.625 9.77355 26.625 7.3438C26.625 4.91406 24.7747 2.93756 22.5 2.93756C20.2254 2.93756 18.375 4.91406 18.375 7.3438C18.375 9.77355 20.2254 11.75 22.5 11.75ZM22.5 4.4063C24.0164 4.4063 25.25 5.72373 25.25 7.3438C25.25 8.96387 24.0164 10.2813 22.5 10.2813C20.9837 10.2813 19.75 8.96387 19.75 7.3438C19.75 5.72373 20.9837 4.4063 22.5 4.4063ZM21.3265 8.5974C21.0579 8.31054 21.0579 7.84581 21.3265 7.55895L22.7014 6.0902C22.97 5.80334 23.4051 5.80334 23.6736 6.0902C23.9422 6.37707 23.9422 6.84179 23.6736 7.12865L22.2986 8.5974C22.1643 8.74083 21.9884 8.81255 21.8125 8.81255C21.6366 8.81255 21.4607 8.74083 21.3265 8.5974ZM30.0625 11.0157H38.3125C38.6922 11.0157 39 10.6872 39 10.2813V4.4063C39 4.00039 38.6922 3.67193 38.3125 3.67193H30.0625C29.6829 3.67193 29.375 4.00039 29.375 4.4063V10.2813C29.375 10.6872 29.6829 11.0157 30.0625 11.0157ZM30.75 5.14068H37.625V9.54692H30.75V5.14068ZM6.00005 4.4063C6.00005 4.00039 6.30789 3.67193 6.68755 3.67193H12.875C13.2547 3.67193 13.5625 4.00039 13.5625 4.4063C13.5625 4.81222 13.2547 5.14068 12.875 5.14068H6.68755C6.30789 5.14068 6.00005 4.81222 6.00005 4.4063ZM6.00005 7.3438C6.00005 6.93789 6.30789 6.60943 6.68755 6.60943H12.875C13.2547 6.60943 13.5625 6.93789 13.5625 7.3438C13.5625 7.74971 13.2547 8.07817 12.875 8.07817H6.68755C6.30789 8.07817 6.00005 7.74971 6.00005 7.3438ZM6.00005 10.2813C6.00005 9.87538 6.30789 9.54692 6.68755 9.54692H12.875C13.2547 9.54692 13.5625 9.87538 13.5625 10.2813C13.5625 10.6872 13.2547 11.0157 12.875 11.0157H6.68755C6.30789 11.0157 6.00005 10.6872 6.00005 10.2813ZM43.125 17.625H40.375V14.6875H41.0625C42.1998 14.6875 43.125 13.6993 43.125 12.4844V2.20318C43.125 0.98831 42.1998 6.10352e-05 41.0625 6.10352e-05H3.93756C2.80023 6.10352e-05 1.87506 0.98831 1.87506 2.20318V12.4844C1.87506 13.6993 2.80023 14.6875 3.93756 14.6875H4.62506V21.6995C4.29033 21.4914 3.91351 21.3496 3.50317 21.3091C1.98785 21.1707 0.651124 22.3519 0.511812 23.964C0.372164 25.5769 1.487 27.0105 2.99695 27.1597C3.08255 27.1676 3.16748 27.1719 3.25174 27.1719C3.74873 27.1719 4.21727 27.0224 4.62506 26.7692V41.125H3.25006C2.49173 41.125 1.87506 41.7841 1.87506 42.5938V45.5312C1.87506 46.3409 2.49173 47 3.25006 47H41.75C42.5083 47 43.125 46.3409 43.125 45.5312V42.5938C43.125 41.7841 42.5083 41.125 41.75 41.125H40.375V23.5H43.125C43.8833 23.5 44.5 22.841 44.5 22.0313V19.0938C44.5 18.2841 43.8833 17.625 43.125 17.625ZM39 17.625H33.5C32.7417 17.625 32.125 18.2841 32.125 19.0938V19.8282H29.375V18.3594C29.375 17.1445 28.4499 16.1563 27.3125 16.1563V14.6875H39V17.625ZM20.4375 24.9688H24.5625V27.1719H20.4375V24.9688ZM17.6875 23.5C17.3085 23.5 17 23.1709 17 22.7657V18.3594C17 17.9542 17.3085 17.625 17.6875 17.625H27.3125C27.6915 17.625 28 17.9542 28 18.3594V22.7657C28 23.1709 27.6915 23.5 27.3125 23.5H17.6875ZM19.0625 14.6875H25.9375V16.1563H19.0625V14.6875ZM3.25006 12.4844V2.20318C3.25006 1.79799 3.55856 1.46881 3.93756 1.46881H41.0625C41.4415 1.46881 41.75 1.79799 41.75 2.20318V12.4844C41.75 12.8896 41.4415 13.2188 41.0625 13.2188H3.93756C3.55856 13.2188 3.25006 12.8896 3.25006 12.4844ZM9.43755 16.8907V14.6875H12.1875V16.8907H9.43755ZM8.06255 14.6875V17.625C8.06255 18.031 8.37038 18.3594 8.75005 18.3594H10.125V20.7827L6.00005 22.3864V14.6875H8.06255ZM3.12317 25.6967C2.36853 25.6228 1.81128 24.9057 1.88077 24.0989C1.94656 23.3387 2.54745 22.7657 3.24939 22.7657C3.29135 22.7657 3.33398 22.7678 3.37695 22.7721C3.91893 22.8252 4.35466 23.2123 4.53396 23.7239C4.5353 23.7281 4.53434 23.7325 4.53576 23.7367C4.53937 23.7473 4.54659 23.755 4.55062 23.7653C4.61071 23.9544 4.63756 24.1586 4.61935 24.3699C4.54953 25.1753 3.8862 25.7713 3.12317 25.6967ZM41.751 45.5312H3.25006V42.5938H41.75L41.751 45.5312ZM17.021 35.6926L17.6184 35.3734C18.5556 34.8721 19.6517 34.824 20.6252 35.24C21.8344 35.7563 23.1657 35.7563 24.3749 35.24C25.3474 34.8247 26.4434 34.8728 27.3813 35.3734L27.979 35.6927C27.7658 38.7254 25.3928 41.125 22.5 41.125C19.6072 41.125 17.2342 38.7255 17.021 35.6926ZM32.125 32.3125V33.7813C32.125 35.4013 30.8913 36.7188 29.375 36.7188H29.2365C29.3239 36.2606 29.3694 35.7867 29.3725 35.3022C29.3728 35.2982 29.3729 35.2945 29.3731 35.2905C29.3732 35.2769 29.375 35.2637 29.375 35.25V32.3125H32.125ZM28 34.0617L27.996 34.0595C26.7076 33.3718 25.2017 33.3058 23.864 33.8759C22.9848 34.2524 22.016 34.2539 21.1361 33.8759C19.7987 33.3036 18.2921 33.3718 17.0037 34.0595L17 34.0615V31.5781H28V34.0617ZM39 41.125H26.6074C27.5551 40.3671 28.316 39.359 28.797 38.1875H29.375C31.6497 38.1875 33.5 36.211 33.5 33.7813V32.3125C33.5 31.5028 32.8834 30.8438 32.125 30.8438H29.1837C28.9452 30.407 28.5067 30.1094 28 30.1094H17C16.2417 30.1094 15.625 30.7685 15.625 31.5781V35.25C15.625 35.2637 15.6269 35.2769 15.627 35.2905C15.6272 35.2945 15.6273 35.2982 15.6275 35.3022C15.6433 37.6842 16.7288 39.7943 18.3926 41.125H6.00005V23.9489L11.0475 21.9868C11.3191 21.8814 11.5 21.606 11.5 21.2969V18.3594H12.875C13.2547 18.3594 13.5625 18.031 13.5625 17.625V14.6875H17.6875V16.1563C16.5502 16.1563 15.625 17.1445 15.625 18.3594V22.7657C15.625 23.9805 16.5502 24.9688 17.6875 24.9688H19.0625V27.9063C19.0625 28.3122 19.3704 28.6406 19.75 28.6406H25.25C25.6297 28.6406 25.9375 28.3122 25.9375 27.9063V24.9688H27.3125C28.4499 24.9688 29.375 23.9805 29.375 22.7657V21.2969H32.125V22.0313C32.125 22.841 32.7417 23.5 33.5 23.5H39V41.125ZM33.5 22.0313V19.0938H43.125L43.126 22.0313H33.5ZM12.1875 25.7031H8.75005C8.37038 25.7031 8.06255 26.0316 8.06255 26.4375V32.3125C8.06255 32.7184 8.37038 33.0469 8.75005 33.0469H12.1875C12.5672 33.0469 12.875 32.7184 12.875 32.3125V26.4375C12.875 26.0316 12.5672 25.7031 12.1875 25.7031ZM11.5 31.5781H9.43755V27.1719H11.5V31.5781Z" fill="white"/>
</svg>
