<svg width="39" height="49" viewBox="0 0 39 49" fill="none" xmlns="http://www.w3.org/2000/svg">
<path d="M37.922 25.6403L35.702 21.234C35.5762 20.9852 35.3204 20.8281 35.04 20.8281H30.4636C30.5466 20.5973 30.6 20.3525 30.6 20.0938C30.6 18.8789 29.6042 17.8906 28.38 17.8906V14.9531C28.38 14.5472 28.049 14.2188 27.64 14.2188H24.322L28.1277 5.40625H28.38C29.6042 5.40625 30.6 4.418 30.6 3.20312C30.6 1.98825 29.6042 1 28.38 1H4.7C3.47582 1 2.48 1.98825 2.48 3.20312C2.48 4.418 3.47582 5.40625 4.7 5.40625H4.9523L8.75803 14.2188H5.44C5.03098 14.2188 4.7 14.5472 4.7 14.9531V17.8906H1.74C1.33098 17.8906 1 18.2191 1 18.625C1 20.1847 1.98927 21.5117 3.37456 22.0429L6.07232 27.3973L4.46803 29.9447C3.16725 32.0101 2.48 34.389 2.48 36.8244V37.8579C2.48 41.722 4.19559 45.3565 7.18594 47.83C7.31891 47.9398 7.48656 48 7.66 48H25.42C25.5934 48 25.7611 47.9398 25.8941 47.83C28.8844 45.3565 30.6 41.722 30.6 37.8579V36.8244C30.6 34.389 29.9128 32.0101 28.612 29.9447C28.55 29.8463 28.5005 29.742 28.4446 29.6406H31.34C31.486 29.6406 31.6291 29.5976 31.7505 29.5173L32.82 28.8094V36.9844C32.82 39.0089 34.4799 40.6562 36.52 40.6562H37.26C37.669 40.6562 38 40.3278 38 39.9219V25.9688C38 25.8547 37.9733 25.7421 37.922 25.6403ZM3.96 3.20312C3.96 2.79793 4.2917 2.46875 4.7 2.46875H28.38C28.7883 2.46875 29.12 2.79793 29.12 3.20312C29.12 3.60832 28.7883 3.9375 28.38 3.9375H4.7C4.2917 3.9375 3.96 3.60832 3.96 3.20312ZM6.56229 5.40625H26.5177L22.7122 14.2188H10.3678L6.56229 5.40625ZM6.18 15.6875H26.9V17.8906H6.18V15.6875ZM2.60646 19.3594H28.38C28.7883 19.3594 29.12 19.6886 29.12 20.0938C29.12 20.4989 28.7883 20.8281 28.38 20.8281H4.7C3.73525 20.8281 2.91215 20.2142 2.60646 19.3594ZM29.12 36.8244V37.8579C29.12 41.197 27.6754 44.3432 25.1476 46.5312H7.93244C5.40459 44.3432 3.96 41.197 3.96 37.8579V36.8244C3.96 34.6644 4.56992 32.5545 5.72256 30.7235L7.54727 27.8269C7.68385 27.6096 7.69686 27.3378 7.58195 27.109L5.15744 22.2969H27.3119L26.6753 23.9808C25.8384 26.1968 26.0935 28.7169 27.3574 30.7235C28.5101 32.5545 29.12 34.6644 29.12 36.8244ZM36.52 39.1875C35.2958 39.1875 34.3 38.1992 34.3 36.9844V27.4375C34.3 27.1664 34.1497 26.9176 33.909 26.7899C33.6691 26.6622 33.3764 26.6766 33.1495 26.8265L31.116 28.1719H27.8638C27.6831 27.4528 27.6289 26.7065 27.7119 25.9688H31.34C31.749 25.9688 32.08 25.6403 32.08 25.2344C32.08 24.8285 31.749 24.5 31.34 24.5H28.0604L28.0613 24.4971L28.893 22.2969H34.5826L36.52 26.1423V39.1875ZM25.8355 32.1572L25.0543 32.3393C22.3321 32.9762 19.5491 33.0844 16.7821 32.6628L16.3001 32.5896C12.9925 32.0847 9.68127 32.2877 6.45967 33.1935C6.2248 33.2594 6.03764 33.4359 5.95959 33.6661C5.61488 34.6837 5.44 35.7458 5.44 36.823V37.8586C5.44 40.4848 6.44955 42.9641 8.28293 44.8395C8.4224 44.9822 8.61391 45.0625 8.81408 45.0625H24.2659C24.4661 45.0625 24.6576 44.9822 24.7971 44.8395C26.6305 42.9641 27.64 40.4848 27.64 37.8586V36.823C27.64 35.3299 27.3148 33.8941 26.6731 32.5566C26.5235 32.2446 26.1759 32.0797 25.8355 32.1572ZM26.16 37.8586C26.16 39.9979 25.3759 42.0224 23.9451 43.5938H9.13494C7.70408 42.0224 6.92 39.9979 6.92 37.8586V36.823C6.92 36.0341 7.02984 35.2553 7.24736 34.5023C10.1423 33.7421 13.111 33.5893 16.0753 34.0411L16.5573 34.1143C19.5123 34.5661 22.4853 34.4499 25.3933 33.7693L25.5725 33.727C25.9627 34.7103 26.16 35.7487 26.16 36.823V37.8586ZM16.54 31.1237C18.1725 31.1237 19.5 29.8063 19.5 28.1862C19.5 26.7612 17.4932 24.4692 17.0907 24.0238C16.8103 23.714 16.2697 23.714 15.9893 24.0238C15.5868 24.4692 13.58 26.7612 13.58 28.1862C13.58 29.8063 14.9075 31.1237 16.54 31.1237ZM16.54 25.6518C17.3248 26.625 18.02 27.7186 18.02 28.1862C18.02 28.9959 17.3559 29.655 16.54 29.655C15.7241 29.655 15.06 28.9959 15.06 28.1862C15.06 27.7186 15.7552 26.625 16.54 25.6518Z" fill="#3DA083"/>
</svg>
