<svg width="31" height="47" viewBox="0 0 31 47" fill="none" xmlns="http://www.w3.org/2000/svg">
<path fill-rule="evenodd" clip-rule="evenodd" d="M26.5716 6.48261V2.43097C26.5716 2.21605 26.4938 2.00994 26.3554 1.85797C26.217 1.706 26.0292 1.62062 25.8335 1.62062H18.4524V6.48261H26.5716ZM16.9763 6.48261V1.62062H14.024V6.48261H16.9763ZM13.6844 8.10336H16.334L14.3634 11.3447H11.7137L13.6844 8.10336ZM11.9203 8.10336L9.72093 11.7255C9.65045 11.8451 9.60993 11.983 9.60345 12.1253C9.59697 12.2675 9.62476 12.4091 9.68402 12.5359C9.74678 12.6653 9.84033 12.7735 9.95471 12.8492C10.0691 12.9248 10.2 12.965 10.3335 12.9653H14.762C14.8849 12.9629 15.0053 12.9268 15.1123 12.8603C15.2193 12.7938 15.3095 12.699 15.3746 12.5845L18.0956 8.10336H26.2173L23.8555 14.586H1.83128L4.1931 8.10336H11.9203ZM12.5478 6.48261V1.62062H5.16734C4.97159 1.62062 4.78386 1.706 4.64544 1.85797C4.50703 2.00994 4.42927 2.21605 4.42927 2.43097V6.48261H12.5478ZM17.7144 -6.10352e-05H13.2859H5.16734C4.58009 -6.10352e-05 4.01689 0.256064 3.60165 0.711971C3.1864 1.16788 2.95311 1.78622 2.95311 2.43097V7.13505L0.0525163 15.0965C0.0130178 15.2053 -0.00450045 15.3219 0.000965375 15.4385V44.569C0.000965375 45.2138 0.234249 45.8321 0.649498 46.288C1.06475 46.7439 1.62794 47.0001 2.21519 47.0001H24.3575C24.3645 47.0001 24.3716 47 24.3786 46.9997H28.7857C29.373 46.9997 29.9362 46.7436 30.3514 46.2877C30.7667 45.8318 31 45.2135 31 44.5687V15.3964C30.9977 15.294 30.9803 15.1927 30.9483 15.0965L28.0477 7.13506V2.43097C28.0477 1.78622 27.8144 1.16788 27.3992 0.711971C26.9839 0.256064 26.4207 -6.10352e-05 25.8335 -6.10352e-05H17.7144ZM1.47712 16.2071H23.6192V45.3794H2.21519C2.01944 45.3794 1.83171 45.294 1.6933 45.142C1.55488 44.9901 1.47712 44.784 1.47712 44.569V16.2071ZM25.0956 15.5541V45.379H28.7857C28.9815 45.379 29.1692 45.2937 29.3076 45.1417C29.4461 44.9897 29.5238 44.7836 29.5238 44.5687V15.5503L27.3104 9.47492L25.0956 15.5541ZM11.0716 36.5219C10.5736 36.5386 10.0776 36.4461 9.61252 36.2499C9.23407 36.0903 8.88229 35.8646 8.57055 35.5821C8.55071 35.5715 8.53129 35.5599 8.51234 35.5474C8.42918 35.4924 8.35674 35.4199 8.29915 35.3341C8.28042 35.3062 8.2634 35.2771 8.24814 35.2469C6.65831 33.3195 7.16071 29.8275 9.41097 27.3569C11.7138 24.8286 14.9908 24.31 16.7179 26.2062C18.445 28.1024 17.9727 31.7003 15.6699 34.2286C14.4677 35.6214 12.8179 36.4442 11.0716 36.5219ZM8.81179 32.7933C8.66949 31.4792 9.27912 29.803 10.4664 28.4995C11.3973 27.4161 12.6698 26.7639 14.024 26.6762C14.3282 26.6618 14.6319 26.7146 14.9172 26.8315C15.0855 26.9005 15.2453 26.991 15.3935 27.1007C14.9939 28.7048 13.7239 29.352 12.2379 30.1039L12.2339 30.1059C10.9854 30.7359 9.61908 31.4253 8.81179 32.7933ZM9.73857 34.4994C10.1607 32.9553 11.4124 32.3175 12.8727 31.5787L12.8767 31.5767C14.1292 30.9447 15.5003 30.2529 16.3066 28.876C16.4148 30.177 15.8061 31.81 14.6439 33.086C13.0862 34.7963 10.9815 35.3739 9.73857 34.4994ZM19.9289 39.7066H5.16734C4.58009 39.7066 4.01689 39.4505 3.60165 38.9946C3.1864 38.5387 2.95311 37.9203 2.95311 37.2756V24.3101C2.95311 23.6654 3.1864 23.047 3.60165 22.5911C4.01689 22.1352 4.58009 21.8791 5.16734 21.8791H19.9289C20.5161 21.8791 21.0793 22.1352 21.4946 22.5911C21.9098 23.047 22.1431 23.6654 22.1431 24.3101V37.2756C22.1431 37.9203 21.9098 38.5387 21.4946 38.9946C21.0793 39.4505 20.5161 39.7066 19.9289 39.7066ZM5.16734 23.4998C4.97159 23.4998 4.78386 23.5851 4.64544 23.7371C4.50703 23.8891 4.42927 24.0952 4.42927 24.3101V37.2756C4.42927 37.4905 4.50703 37.6966 4.64544 37.8486C4.78386 38.0006 4.97159 38.0859 5.16734 38.0859H19.9289C20.1246 38.0859 20.3124 38.0006 20.4508 37.8486C20.5892 37.6966 20.6669 37.4905 20.6669 37.2756V24.3101C20.6669 24.0952 20.5892 23.8891 20.4508 23.7371C20.3124 23.5851 20.1246 23.4998 19.9289 23.4998H5.16734Z" fill="#3DA083"/>
</svg>
