<svg width="31" height="43" viewBox="0 0 31 43" fill="none" xmlns="http://www.w3.org/2000/svg">
<path d="M30.3968 11.5487C30.3796 11.5143 30.371 11.4885 30.3538 11.4541L26.6468 5.8291V0.857772C26.6468 0.384722 26.2597 -0.00231934 25.7867 -0.00231934H5.2133C4.74025 -0.00231934 4.35321 0.384722 4.35321 0.857772V5.8377L0.646215 11.4627C0.551605 11.6003 0.5 11.7637 0.5 11.9358V42.1422C0.5 42.6152 0.887041 43.0023 1.36009 43.0023H9.06651H29.6399C30.113 43.0023 30.5 42.6152 30.5 42.1422V11.9272C30.5 11.8239 30.4742 11.7207 30.4398 11.6261C30.4312 11.6003 30.414 11.5745 30.3968 11.5487ZM9.52236 11.0671L6.80447 6.94722H25.3222L28.0401 11.0671H9.52236ZM6.0734 1.71786H24.9266V5.23564H6.0734V1.71786ZM2.22018 12.1938L5.2133 7.6611L8.20642 12.1938V41.2821H2.22018V12.1938ZM9.92661 41.2821V12.7872H28.7798V41.2821H9.92661Z" fill="#91E0C8"/>
</svg>
