<svg width="12" height="12" viewBox="0 0 12 12" fill="none" xmlns="http://www.w3.org/2000/svg">
<path id="Vector" d="M11.9572 4.51654C11.9053 4.35062 11.8075 4.20421 11.676 4.09553C11.5445 3.98685 11.3851 3.92072 11.2176 3.90536L8.03665 3.62088L6.78978 0.544954C6.72486 0.383555 6.61536 0.245689 6.47507 0.148717C6.33477 0.0517441 6.16996 0 6.00138 0C5.8328 0 5.66798 0.0517441 5.52769 0.148717C5.3874 0.245689 5.2779 0.383555 5.21298 0.544954L3.96986 3.62088L0.785198 3.90702C0.61704 3.92168 0.456794 3.98752 0.32456 4.09628C0.192326 4.20503 0.0939901 4.35187 0.0418806 4.51838C-0.0102288 4.68488 -0.0137907 4.86364 0.031642 5.03224C0.0770748 5.20083 0.169481 5.35176 0.29727 5.4661L2.71335 7.65636L1.98922 10.909C1.95093 11.0792 1.96186 11.2573 2.02063 11.4211C2.07941 11.5849 2.18342 11.7271 2.31968 11.8299C2.45593 11.9328 2.61838 11.9916 2.78671 11.9992C2.95504 12.0067 3.12178 11.9626 3.26608 11.8724L5.99763 10.15L8.73507 11.8724C8.87937 11.9626 9.04611 12.0067 9.21444 11.9992C9.38277 11.9916 9.54521 11.9328 9.68146 11.8299C9.81772 11.7271 9.92174 11.5849 9.98051 11.4211C10.0393 11.2573 10.0502 11.0792 10.0119 10.909L9.28834 7.65303L11.7039 5.4661C11.8317 5.35137 11.9239 5.20001 11.969 5.03106C12.014 4.8621 12.0099 4.68309 11.9572 4.51654Z" fill="black"/>
</svg>
