<svg width="172" height="54" viewBox="0 0 172 54" fill="none" xmlns="http://www.w3.org/2000/svg">
<path d="M17.6965 37.336C16.4085 37.336 15.2418 37.056 14.1965 36.496C13.1698 35.9173 12.3485 35.0867 11.7325 34.004C11.1352 32.9027 10.8365 31.5867 10.8365 30.056C10.8365 28.5067 11.1725 27.1907 11.8445 26.108C12.5165 25.0253 13.4032 24.204 14.5045 23.644C15.6058 23.0653 16.7912 22.776 18.0605 22.776C18.9192 22.776 19.6752 22.916 20.3285 23.196C21.0005 23.476 21.5978 23.8307 22.1205 24.26L20.1885 26.92C19.5352 26.3787 18.9098 26.108 18.3125 26.108C17.3232 26.108 16.5298 26.4627 15.9325 27.172C15.3538 27.8813 15.0645 28.8427 15.0645 30.056C15.0645 31.2507 15.3538 32.212 15.9325 32.94C16.5298 33.6493 17.2765 34.004 18.1725 34.004C18.6205 34.004 19.0592 33.9107 19.4885 33.724C19.9178 33.5187 20.3098 33.276 20.6645 32.996L22.2885 35.684C21.5978 36.2813 20.8512 36.7107 20.0485 36.972C19.2458 37.2147 18.4618 37.336 17.6965 37.336ZM30.1699 37.336C28.9939 37.336 27.8832 37.056 26.8379 36.496C25.8112 35.9173 24.9805 35.0867 24.3459 34.004C23.7112 32.9027 23.3939 31.5867 23.3939 30.056C23.3939 28.5067 23.7112 27.1907 24.3459 26.108C24.9805 25.0253 25.8112 24.204 26.8379 23.644C27.8832 23.0653 28.9939 22.776 30.1699 22.776C31.3459 22.776 32.4472 23.0653 33.4739 23.644C34.5005 24.204 35.3312 25.0253 35.9659 26.108C36.6005 27.1907 36.9179 28.5067 36.9179 30.056C36.9179 31.5867 36.6005 32.9027 35.9659 34.004C35.3312 35.0867 34.5005 35.9173 33.4739 36.496C32.4472 37.056 31.3459 37.336 30.1699 37.336ZM30.1699 34.004C31.0099 34.004 31.6445 33.6493 32.0739 32.94C32.5032 32.212 32.7179 31.2507 32.7179 30.056C32.7179 28.8427 32.5032 27.8813 32.0739 27.172C31.6445 26.4627 31.0099 26.108 30.1699 26.108C29.3112 26.108 28.6672 26.4627 28.2379 27.172C27.8272 27.8813 27.6219 28.8427 27.6219 30.056C27.6219 31.2507 27.8272 32.212 28.2379 32.94C28.6672 33.6493 29.3112 34.004 30.1699 34.004ZM49.4284 37V26.332H44.6964V37H40.5804V26.332H38.7324V23.28L40.5804 23.14V22.496C40.5804 21.544 40.7577 20.676 41.1124 19.892C41.4671 19.108 42.0271 18.4827 42.7924 18.016C43.5764 17.5493 44.5937 17.316 45.8444 17.316C46.4417 17.316 46.9924 17.372 47.4964 17.484C48.0004 17.5773 48.4111 17.6893 48.7284 17.82L47.9724 20.872C47.7484 20.7787 47.5151 20.704 47.2724 20.648C47.0297 20.592 46.7217 20.564 46.3484 20.564C45.8817 20.564 45.4897 20.7227 45.1724 21.04C44.8551 21.3387 44.6964 21.8147 44.6964 22.468V23.112H49.4284V22.384C49.4284 21.3947 49.5964 20.4987 49.9324 19.696C50.2684 18.8933 50.8097 18.2493 51.5564 17.764C52.3031 17.2787 53.3017 17.036 54.5524 17.036C55.1311 17.036 55.6631 17.092 56.1484 17.204C56.6337 17.316 57.0257 17.428 57.3244 17.54L56.5684 20.564C56.3257 20.4707 56.0831 20.4053 55.8404 20.368C55.5977 20.312 55.3644 20.284 55.1404 20.284C54.6364 20.284 54.2444 20.4427 53.9644 20.76C53.6844 21.0587 53.5444 21.5627 53.5444 22.272V23.112H56.0364V26.332H53.5444V37H49.4284ZM64.5053 37.336C63.18 37.336 61.9853 37.0467 60.9213 36.468C59.8573 35.8893 59.0173 35.0587 58.4013 33.976C57.7853 32.8933 57.4773 31.5867 57.4773 30.056C57.4773 28.544 57.7853 27.2467 58.4013 26.164C59.036 25.0813 59.8573 24.2507 60.8653 23.672C61.8733 23.0747 62.928 22.776 64.0293 22.776C65.3546 22.776 66.4466 23.0747 67.3053 23.672C68.1826 24.2507 68.836 25.044 69.2653 26.052C69.7133 27.0413 69.9373 28.1707 69.9373 29.44C69.9373 29.7947 69.9186 30.1493 69.8813 30.504C69.844 30.84 69.8066 31.092 69.7693 31.26H61.4533C61.64 32.268 62.06 33.0147 62.7133 33.5C63.3666 33.9667 64.1506 34.2 65.0653 34.2C66.0546 34.2 67.0533 33.892 68.0613 33.276L69.4333 35.768C68.724 36.2533 67.9306 36.636 67.0533 36.916C66.176 37.196 65.3266 37.336 64.5053 37.336ZM61.4253 28.544H66.4373C66.4373 27.7787 66.2506 27.1533 65.8773 26.668C65.5226 26.164 64.9346 25.912 64.1133 25.912C63.4786 25.912 62.9093 26.136 62.4053 26.584C61.9013 27.0133 61.5746 27.6667 61.4253 28.544ZM79.2775 37.336C77.9521 37.336 76.7575 37.0467 75.6935 36.468C74.6295 35.8893 73.7895 35.0587 73.1735 33.976C72.5575 32.8933 72.2495 31.5867 72.2495 30.056C72.2495 28.544 72.5575 27.2467 73.1735 26.164C73.8081 25.0813 74.6295 24.2507 75.6375 23.672C76.6455 23.0747 77.7001 22.776 78.8015 22.776C80.1268 22.776 81.2188 23.0747 82.0775 23.672C82.9548 24.2507 83.6081 25.044 84.0375 26.052C84.4855 27.0413 84.7095 28.1707 84.7095 29.44C84.7095 29.7947 84.6908 30.1493 84.6535 30.504C84.6161 30.84 84.5788 31.092 84.5415 31.26H76.2255C76.4121 32.268 76.8321 33.0147 77.4855 33.5C78.1388 33.9667 78.9228 34.2 79.8375 34.2C80.8268 34.2 81.8255 33.892 82.8335 33.276L84.2055 35.768C83.4961 36.2533 82.7028 36.636 81.8255 36.916C80.9481 37.196 80.0988 37.336 79.2775 37.336ZM76.1975 28.544H81.2095C81.2095 27.7787 81.0228 27.1533 80.6495 26.668C80.2948 26.164 79.7068 25.912 78.8855 25.912C78.2508 25.912 77.6815 26.136 77.1775 26.584C76.6735 27.0133 76.3468 27.6667 76.1975 28.544ZM98.6751 42.908C97.5925 42.908 96.6125 42.7867 95.7351 42.544C94.8578 42.3013 94.1578 41.9187 93.6351 41.396C93.1125 40.8733 92.8511 40.2013 92.8511 39.38C92.8511 38.26 93.5138 37.3267 94.8391 36.58V36.468C94.4845 36.2253 94.1765 35.9173 93.9151 35.544C93.6725 35.1707 93.5511 34.6947 93.5511 34.116C93.5511 33.612 93.7005 33.1267 93.9991 32.66C94.2978 32.1933 94.6711 31.8107 95.1191 31.512V31.4C94.6338 31.064 94.1951 30.5787 93.8031 29.944C93.4298 29.3093 93.2431 28.5907 93.2431 27.788C93.2431 26.668 93.5138 25.744 94.0551 25.016C94.5965 24.2693 95.3058 23.7093 96.1831 23.336C97.0605 22.9627 97.9938 22.776 98.9831 22.776C99.8045 22.776 100.523 22.888 101.139 23.112H106.207V26.108H103.995C104.126 26.3133 104.228 26.5747 104.303 26.892C104.396 27.2093 104.443 27.5547 104.443 27.928C104.443 28.992 104.2 29.8693 103.715 30.56C103.23 31.2507 102.576 31.764 101.755 32.1C100.934 32.436 100.01 32.604 98.9831 32.604C98.4418 32.604 97.8818 32.5107 97.3031 32.324C96.9671 32.604 96.7991 32.9493 96.7991 33.36C96.7991 33.7147 96.9578 33.976 97.2751 34.144C97.5925 34.312 98.1338 34.396 98.8991 34.396H101.139C102.856 34.396 104.163 34.676 105.059 35.236C105.974 35.7773 106.431 36.6733 106.431 37.924C106.431 38.876 106.114 39.7253 105.479 40.472C104.844 41.2373 103.948 41.8347 102.791 42.264C101.634 42.6933 100.262 42.908 98.6751 42.908ZM98.9831 30.112C99.5245 30.112 99.9725 29.916 100.327 29.524C100.7 29.132 100.887 28.5533 100.887 27.788C100.887 27.06 100.7 26.5093 100.327 26.136C99.9725 25.744 99.5245 25.548 98.9831 25.548C98.4418 25.548 97.9845 25.7347 97.6111 26.108C97.2565 26.4813 97.0791 27.0413 97.0791 27.788C97.0791 28.5533 97.2565 29.132 97.6111 29.524C97.9845 29.916 98.4418 30.112 98.9831 30.112ZM99.3191 40.332C100.252 40.332 101.018 40.164 101.615 39.828C102.212 39.492 102.511 39.0907 102.511 38.624C102.511 38.1947 102.324 37.9053 101.951 37.756C101.596 37.6067 101.074 37.532 100.383 37.532H98.9551C98.4885 37.532 98.0965 37.5133 97.7791 37.476C97.4805 37.4573 97.2191 37.42 96.9951 37.364C96.4911 37.812 96.2391 38.2693 96.2391 38.736C96.2391 39.2587 96.5191 39.6507 97.0791 39.912C97.6578 40.192 98.4045 40.332 99.3191 40.332ZM113.128 37.336C111.616 37.336 110.515 36.8413 109.824 35.852C109.152 34.844 108.816 33.472 108.816 31.736V23.112H112.932V31.204C112.932 32.1933 113.072 32.884 113.352 33.276C113.632 33.6493 114.071 33.836 114.668 33.836C115.191 33.836 115.63 33.7147 115.984 33.472C116.339 33.2293 116.722 32.8373 117.132 32.296V23.112H121.248V37H117.888L117.58 35.068H117.496C116.918 35.7587 116.283 36.3093 115.592 36.72C114.902 37.1307 114.08 37.336 113.128 37.336ZM125.15 37V23.112H129.266V37H125.15ZM127.194 21.068C126.504 21.068 125.944 20.872 125.514 20.48C125.085 20.088 124.87 19.5653 124.87 18.912C124.87 18.2587 125.085 17.736 125.514 17.344C125.944 16.952 126.504 16.756 127.194 16.756C127.885 16.756 128.445 16.952 128.874 17.344C129.304 17.736 129.518 18.2587 129.518 18.912C129.518 19.5653 129.304 20.088 128.874 20.48C128.445 20.872 127.885 21.068 127.194 21.068ZM138.125 37.336C136.407 37.336 135.026 36.692 133.981 35.404C132.954 34.0973 132.441 32.3147 132.441 30.056C132.441 28.544 132.711 27.2467 133.253 26.164C133.813 25.0627 134.531 24.2227 135.409 23.644C136.305 23.0653 137.238 22.776 138.209 22.776C138.974 22.776 139.618 22.9067 140.141 23.168C140.663 23.4293 141.158 23.784 141.625 24.232L141.457 22.104V17.372H145.573V37H142.213L141.933 35.628H141.821C141.335 36.1133 140.766 36.524 140.113 36.86C139.459 37.1773 138.797 37.336 138.125 37.336ZM139.189 33.976C139.637 33.976 140.038 33.8827 140.393 33.696C140.766 33.5093 141.121 33.1827 141.457 32.716V27.032C141.102 26.696 140.719 26.4627 140.309 26.332C139.917 26.2013 139.534 26.136 139.161 26.136C138.507 26.136 137.929 26.4533 137.425 27.088C136.921 27.704 136.669 28.6747 136.669 30C136.669 31.3627 136.883 32.3707 137.313 33.024C137.761 33.6587 138.386 33.976 139.189 33.976ZM155.715 37.336C154.39 37.336 153.195 37.0467 152.131 36.468C151.067 35.8893 150.227 35.0587 149.611 33.976C148.995 32.8933 148.687 31.5867 148.687 30.056C148.687 28.544 148.995 27.2467 149.611 26.164C150.246 25.0813 151.067 24.2507 152.075 23.672C153.083 23.0747 154.138 22.776 155.239 22.776C156.565 22.776 157.657 23.0747 158.515 23.672C159.393 24.2507 160.046 25.044 160.475 26.052C160.923 27.0413 161.147 28.1707 161.147 29.44C161.147 29.7947 161.129 30.1493 161.091 30.504C161.054 30.84 161.017 31.092 160.979 31.26H152.663C152.85 32.268 153.27 33.0147 153.923 33.5C154.577 33.9667 155.361 34.2 156.275 34.2C157.265 34.2 158.263 33.892 159.271 33.276L160.643 35.768C159.934 36.2533 159.141 36.636 158.263 36.916C157.386 37.196 156.537 37.336 155.715 37.336ZM152.635 28.544H157.647C157.647 27.7787 157.461 27.1533 157.087 26.668C156.733 26.164 156.145 25.912 155.323 25.912C154.689 25.912 154.119 26.136 153.615 26.584C153.111 27.0133 152.785 27.6667 152.635 28.544Z" fill="#3DA083"/>
</svg>
